<?xml version="1.0" encoding="UTF-8" standalone="no"?>
<!-- Created with Inkscape (http://www.inkscape.org/) -->

<svg
   width="100.18331mm"
   height="99.265091mm"
   viewBox="0 0 100.18331 99.265091"
   version="1.1"
   id="svg5"
   xmlns:inkscape="http://www.inkscape.org/namespaces/inkscape"
   xmlns:sodipodi="http://sodipodi.sourceforge.net/DTD/sodipodi-0.dtd"
   xmlns="http://www.w3.org/2000/svg"
   xmlns:svg="http://www.w3.org/2000/svg">
  <sodipodi:namedview
     id="namedview7"
     pagecolor="#ffffff"
     bordercolor="#000000"
     borderopacity="0.25"
     inkscape:showpageshadow="2"
     inkscape:pageopacity="0.0"
     inkscape:pagecheckerboard="0"
     inkscape:deskcolor="#d1d1d1"
     inkscape:document-units="mm"
     showgrid="false" />
  <defs
     id="defs2" />
  <g
     inkscape:label="Layer 1"
     inkscape:groupmode="layer"
     id="layer1"
     transform="translate(-63.595377,-63.306116)">
    <g
       id="path234"
       inkscape:transform-center-x="-0.018303906"
       inkscape:transform-center-y="3.324177"
       transform="matrix(-0.47764126,-1.4125815,1.3899799,-0.48540791,110.34387,217.44016)"
       inkscape:export-filename="applogo.png"
       inkscape:export-xdpi="96"
       inkscape:export-ydpi="96">
      <path
         style="color:#000000;fill:#800000;fill-rule:evenodd;stroke-linecap:round;stroke-linejoin:bevel;-inkscape-stroke:none"
         d="M 92.612906,46.483869 65.072312,46.067667 56.957633,19.746392 79.483079,3.8951521 101.51925,20.419822 Z"
         id="path3334" />
      <path
         style="color:#000000;fill:#000000;fill-rule:evenodd;stroke-linecap:round;stroke-linejoin:bevel;-inkscape-stroke:none"
         d="m 79.195312,3.4863281 -22.52539,15.8515629 -0.189453,0.55664 8.113281,26.320313 0.470703,0.353515 27.541016,0.416016 0.480468,-0.337891 8.906253,-26.064453 -0.17383,-0.5625 L 79.783203,3.4960938 Z m 0.279297,1.0273438 21.453121,16.0878901 -8.669918,25.376954 -26.814453,-0.40625 -7.90039,-25.626954 z"
         id="path3336" />
    </g>
    <g
       aria-label="A"
       transform="matrix(0.98709552,0,0,0.84084327,-249.80947,-160.21175)"
       id="text576"
       style="font-size:53.3333px;font-family:'Arial Rounded MT Bold';-inkscape-font-specification:'Arial Rounded MT Bold, Normal';white-space:pre;fill:#ffffff;fill-rule:evenodd;stroke:#800000;stroke-width:3.77953;stroke-linecap:round;stroke-linejoin:bevel">
      <g
         id="path3338">
        <path
           style="color:#000000;-inkscape-font-specification:'Arial Rounded MT Bold, Normal';fill-rule:nonzero;stroke:none;stroke-linecap:butt;stroke-linejoin:miter;-inkscape-stroke:none"
           d="m 374.6035,314.64508 -1.82292,-4.79166 h -15.52082 l -1.82292,4.89583 q -1.0677,2.86458 -1.82291,3.8802 -0.75521,0.98959 -2.47396,0.98959 -1.45833,0 -2.57812,-1.06771 -1.11979,-1.06771 -1.11979,-2.42188 0,-0.78124 0.26041,-1.61458 0.26042,-0.83333 0.85938,-2.3177 l 9.76562,-24.79166 q 0.41666,-1.0677 0.98958,-2.55208 0.59896,-1.51041 1.25,-2.5 0.67708,-0.98958 1.74479,-1.58854 1.09375,-0.625 2.68229,-0.625 1.61458,0 2.68229,0.625 1.09375,0.59896 1.74479,1.5625 0.67708,0.96354 1.11979,2.08333 0.46875,1.09375 1.17188,2.94271 l 9.97395,24.6354 q 1.17187,2.8125 1.17187,4.08854 0,1.32813 -1.11979,2.44792 -1.09375,1.09375 -2.65625,1.09375 -0.91146,0 -1.5625,-0.33855 -0.65104,-0.3125 -1.09375,-0.85937 -0.4427,-0.57292 -0.96354,-1.71875 -0.49479,-1.17187 -0.85937,-2.05729 z m -15.31249,-10.59895 h 11.40624 l -5.7552,-15.7552 z"
           id="path3343" />
        <path
           style="color:#000000;-inkscape-font-specification:'Arial Rounded MT Bold, Normal';fill:#800000;fill-rule:nonzero;stroke:none;stroke-linecap:butt;stroke-linejoin:miter;-inkscape-stroke:none"
           d="m 364.99414,278.25 c -1.30468,0 -2.54316,0.26304 -3.61328,0.87305 -0.94732,0.53287 -1.76216,1.27122 -2.37305,2.16406 l -0.0195,0.0273 c -0.53041,0.80623 -0.99407,1.74822 -1.42773,2.8418 l -0.006,0.0176 c -0.38134,0.98801 -0.71169,1.83615 -0.98828,2.54492 l -9.76368,24.78516 c -0.4061,1.00709 -0.70407,1.80656 -0.90429,2.44726 -0.22375,0.71603 -0.34571,1.44694 -0.34571,2.17774 0,1.42367 0.66978,2.80386 1.70508,3.79101 1.04305,0.99454 2.4494,1.58985 3.88281,1.58985 1.50852,0 3.05169,-0.52503 3.97461,-1.73438 l 0.0156,-0.0176 c 0.75666,-1.01757 1.33897,-2.36979 2.07617,-4.34765 v -0.002 l 1.36524,-3.66406 h 12.90625 l 1.35937,3.57227 0.0176,0.0488 c 0.24589,0.59718 0.53568,1.28713 0.86719,2.07227 l 0.0195,0.0469 c 0.38159,0.83949 0.74086,1.51126 1.18945,2.0918 l 0.0254,0.0332 c 0.46208,0.5708 1.06025,1.03184 1.71875,1.35352 0.7477,0.3827 1.57407,0.54688 2.40625,0.54688 1.48261,0 2.94486,-0.60112 3.99219,-1.64844 1.01067,-1.01067 1.67383,-2.36668 1.67383,-3.78321 0,-1.42425 -0.49338,-2.84074 -1.3086,-4.79882 l -0.008,-0.0176 -9.95312,-24.58008 -0.0137,-0.0371 c -0.45868,-1.20509 -0.84378,-2.17348 -1.16601,-2.92773 l -0.004,-0.01 c -0.34428,-0.86865 -0.78714,-1.68657 -1.3164,-2.44336 -0.60227,-0.8884 -1.42377,-1.6146 -2.37696,-2.14062 -1.06407,-0.61491 -2.29843,-0.87305 -3.60742,-0.87305 z m 0,3.7793 c 0.83255,0 1.37512,0.16032 1.72852,0.36718 l 0.0469,0.0254 c 0.49328,0.27013 0.82506,0.5768 1.08594,0.9629 l 0.0195,0.0293 c 0.36479,0.51912 0.66603,1.07886 0.9082,1.69141 l 0.0215,0.0488 c 0.29539,0.68923 0.67941,1.65315 1.14258,2.87109 l 0.0137,0.0371 9.97461,24.63477 0.008,0.0176 c 0.74222,1.78134 1.02539,3.09109 1.02539,3.36328 0,0.35432 -0.084,0.62895 -0.56641,1.11133 -0.411,0.41101 -0.71959,0.53907 -1.32031,0.53907 -0.37366,0 -0.57569,-0.0659 -0.68945,-0.125 l -0.0547,-0.0274 c -0.19012,-0.0913 -0.31073,-0.19114 -0.42773,-0.33203 -0.14386,-0.18952 -0.41869,-0.64691 -0.72657,-1.32422 -0.31871,-0.75518 -0.59733,-1.42415 -0.83203,-1.99414 l -1.80469,-4.74414 -1.76562,-1.21875 h -15.52148 l -1.77149,1.23047 -1.82226,4.89648 c -0.68289,1.83214 -1.30767,3.05053 -1.56055,3.39453 -0.0838,0.10974 -0.18651,0.24415 -0.96485,0.24415 -0.51102,0 -0.82539,-0.11586 -1.27539,-0.54493 -0.45774,-0.43645 -0.5332,-0.6728 -0.5332,-1.05468 0,-0.31086 0.0504,-0.65569 0.17383,-1.05079 0.14586,-0.46675 0.41964,-1.20991 0.80859,-2.17382 l 0.006,-0.0137 9.76563,-24.79296 0.002,-0.006 c 0.27707,-0.71001 0.60705,-1.5584 0.98633,-2.54102 0.36204,-0.91296 0.729,-1.62815 1.06445,-2.14062 0.28849,-0.41785 0.62931,-0.73532 1.09766,-0.99805 l 0.0137,-0.006 c 0.38699,-0.22114 0.93295,-0.37695 1.74414,-0.37695 z m 1.72266,5.61328 -3.55274,0.01 -5.65234,15.75586 1.7793,2.52735 h 11.40625 l 1.77539,-2.53711 z m -1.75782,6.19922 3.03516,8.31445 h -6.01758 z"
           id="path3345" />
      </g>
    </g>
    <g
       aria-label="APP   LOGO"
       transform="matrix(0.28134325,0,0,0.50725945,11.727636,-136.47211)"
       id="text684"
       style="font-size:53.3333px;font-family:'Arial Rounded MT Bold';-inkscape-font-specification:'Arial Rounded MT Bold, Normal';white-space:pre;fill:none;fill-rule:evenodd;stroke:#000000;stroke-width:3.97062;stroke-linecap:round;stroke-linejoin:bevel">
      <path
         style="color:#000000;-inkscape-font-specification:'Arial Rounded MT Bold, Normal';fill:#000000;fill-rule:nonzero;stroke:none;stroke-linecap:butt;stroke-linejoin:miter;-inkscape-stroke:none"
         d="m 228.19922,520.89844 c -1.31569,0 -2.57166,0.26447 -3.6582,0.88281 -0.96044,0.53975 -1.78865,1.28981 -2.40821,2.19531 l -0.0195,0.0293 c -0.53528,0.81363 -1.0021,1.76142 -1.4375,2.85937 l -0.006,0.0176 c -0.38131,0.98793 -0.70979,1.83631 -0.98633,2.54492 l -9.76367,24.78516 c -0.40663,1.00841 -0.70658,1.80795 -0.9082,2.45313 -0.2263,0.72414 -0.34961,1.4656 -0.34961,2.20703 0,1.45001 0.68446,2.8583 1.73437,3.85937 1.05805,1.00884 2.49249,1.61524 3.94922,1.61524 1.52686,0 3.10666,-0.53239 4.05078,-1.76954 l 0.0156,-0.0195 c 0.76945,-1.03478 1.35135,-2.38978 2.08984,-4.37109 v -0.002 l 1.3418,-3.60352 h 12.77344 l 1.33593,3.51367 0.0195,0.0488 c 0.24603,0.59753 0.5356,1.28888 0.86718,2.07422 l 0.0215,0.0488 c 0.38332,0.84332 0.74285,1.52073 1.19922,2.11133 l 0.0273,0.0351 c 0.4703,0.58097 1.0785,1.04953 1.74805,1.37696 0.76382,0.39105 1.60712,0.55664 2.45117,0.55664 1.5049,0 2.99714,-0.61042 4.06055,-1.67383 1.02402,-1.02403 1.70117,-2.40819 1.70117,-3.85156 0,-1.45295 -0.49966,-2.87216 -1.31641,-4.83399 l -0.006,-0.0176 -9.95312,-24.57812 -0.0156,-0.041 c -0.45788,-1.20287 -0.8435,-2.17081 -1.16601,-2.92578 l -0.002,-0.004 c -0.3473,-0.87755 -0.79332,-1.70407 -1.32812,-2.46875 -0.6114,-0.90107 -1.44476,-1.63964 -2.41016,-2.17187 -1.08126,-0.62388 -2.3325,-0.88281 -3.65234,-0.88281 z m 0,3.9707 c 0.82022,0 1.34441,0.15725 1.67969,0.35352 l 0.0488,0.0273 c 0.48135,0.2636 0.80062,0.56045 1.05274,0.93359 l 0.0215,0.0293 c 0.36041,0.51289 0.65895,1.06611 0.89844,1.67188 l 0.0215,0.0527 c 0.29453,0.68721 0.67775,1.64803 1.14063,2.86523 l 0.0156,0.0391 9.97266,24.63672 0.008,0.0176 c 0.74025,1.77661 1.01953,3.08323 1.01953,3.32618 0,0.32746 -0.0681,0.57394 -0.5371,1.04296 -0.39493,0.39493 -0.67548,0.51172 -1.25391,0.51172 -0.36184,0 -0.54892,-0.0625 -0.64649,-0.11328 l -0.0566,-0.0293 c -0.17705,-0.085 -0.28515,-0.17598 -0.39257,-0.30468 -0.13564,-0.17882 -0.40894,-0.62988 -0.71289,-1.29688 -0.002,-0.004 -0.002,-0.004 -0.004,-0.008 -0.31725,-0.75172 -0.59427,-1.41845 -0.82813,-1.98633 -6.6e-4,-0.002 -0.001,-0.004 -0.002,-0.006 l -1.80273,-4.74023 -1.85547,-1.28125 h -15.52149 l -1.86132,1.29297 -1.82227,4.89648 c -0.68159,1.82865 -1.30656,3.04401 -1.54688,3.37109 -0.0625,0.0823 -0.12898,0.20508 -0.88867,0.20508 -0.4877,0 -0.77397,-0.1028 -1.20898,-0.51758 -0.44316,-0.42254 -0.50391,-0.63079 -0.50391,-0.98632 0,-0.30024 0.049,-0.63452 0.16992,-1.02149 0.14447,-0.46227 0.41627,-1.20535 0.80469,-2.16797 l 0.006,-0.0156 9.76563,-24.79102 0.004,-0.006 c 0.27707,-0.70998 0.60519,-1.55864 0.98438,-2.54101 l 0.004,-0.01 c 0.001,-0.003 0.003,-0.005 0.004,-0.008 0.3573,-0.89775 0.71901,-1.60444 1.04687,-2.10547 0.28015,-0.40535 0.61056,-0.71107 1.06641,-0.9668 l 0.0137,-0.008 c 0.36969,-0.21125 0.89861,-0.36328 1.69727,-0.36328 z m 1.8125,5.48438 -3.73242,0.0117 -5.65235,15.75391 1.86914,2.65625 h 11.40625 l 1.86524,-2.66602 z m -1.84766,6.51367 2.89844,7.9375 h -5.74414 z"
         id="path3347" />
      <path
         style="color:#000000;-inkscape-font-specification:'Arial Rounded MT Bold, Normal';fill:#000000;fill-rule:nonzero;stroke:none;stroke-linecap:butt;stroke-linejoin:miter;-inkscape-stroke:none"
         d="m 256.63672,521.54883 c -1.985,0 -3.77133,0.40924 -5.07813,1.6289 -1.34432,1.25472 -1.80273,3.0924 -1.80273,5.09766 v 29.42578 c 0,1.8361 0.4401,3.54251 1.57031,4.81055 l 0.0156,0.0176 c 1.07439,1.17922 2.67163,1.81836 4.27929,1.81836 1.58676,0 3.15883,-0.67433 4.22657,-1.84375 1.15904,-1.26944 1.61328,-2.99609 1.61328,-4.85352 v -8.82227 h 5.09765 c 5.01835,0 9.08417,-1.04637 11.97461,-3.45507 l 0.006,-0.006 c 2.87766,-2.4189 4.30078,-6.07647 4.30078,-10.37305 0,-2.0372 -0.33107,-3.94296 -1.02929,-5.66797 -0.69758,-1.72341 -1.75706,-3.231 -3.13086,-4.43945 -1.35942,-1.21091 -2.99297,-2.0796 -4.8125,-2.58594 -1.89091,-0.53912 -4.27648,-0.75195 -7.3086,-0.75195 z m 0,3.9707 h 9.92187 c 2.83222,0 4.95691,0.23936 6.22461,0.60156 l 0.0156,0.004 c 1.29977,0.36105 2.35153,0.93225 3.24609,1.73047 l 0.01,0.01 c 0.91583,0.80483 1.59194,1.75967 2.07422,2.95118 0.48234,1.19165 0.74218,2.56911 0.74218,4.17773 0,3.4786 -0.97163,5.72146 -2.88281,7.33008 -1.90135,1.58345 -4.97027,2.5332 -9.42969,2.5332 h -7.08398 l -1.98438,1.98438 v 10.80859 c 0,1.23284 -0.27493,1.84799 -0.57421,2.17578 -0.3906,0.4278 -0.65947,0.55078 -1.29493,0.55078 -0.71257,0 -0.98894,-0.14363 -1.33398,-0.51953 -0.29125,-0.33076 -0.56055,-0.94453 -0.56055,-2.15625 v -29.42578 c 0,-1.39752 0.32285,-1.99169 0.54102,-2.19531 0.25571,-0.23867 0.95137,-0.56055 2.36914,-0.56055 z m 2.83789,1.83789 -1.98438,1.98438 v 11.66797 l 1.98438,1.98437 h 5.20898 c 1.95855,0 3.66001,-0.19659 5.14453,-0.66211 8.5e-4,-2.6e-4 10e-4,-0.002 0.002,-0.002 1.54461,-0.47911 2.89813,-1.34434 3.81836,-2.58789 0.94728,-1.28012 1.35351,-2.88326 1.35351,-4.5918 0,-2.0729 -0.67153,-4.02812 -2.01953,-5.4707 l -0.0351,-0.0371 c -1.83287,-1.86151 -4.59266,-2.28516 -8.26368,-2.28516 z m 1.98633,3.9707 h 3.22265 c 3.22293,0 5.01678,0.69532 5.41797,1.0918 0.61489,0.66963 0.92969,1.45221 0.92969,2.73047 0,1.10396 -0.23678,1.77447 -0.57422,2.23047 -0.36399,0.49187 -0.88507,0.87325 -1.80469,1.1582 l -0.006,0.004 c -0.94441,0.29681 -2.27863,0.48047 -3.96289,0.48047 h -3.22265 z"
         id="path3349" />
      <path
         style="color:#000000;-inkscape-font-specification:'Arial Rounded MT Bold, Normal';fill:#000000;fill-rule:nonzero;stroke:none;stroke-linecap:butt;stroke-linejoin:miter;-inkscape-stroke:none"
         d="m 292.20898,521.54883 c -1.985,0 -3.77133,0.40924 -5.07812,1.6289 -1.34433,1.25472 -1.80274,3.0924 -1.80274,5.09766 v 29.42578 c 0,1.8361 0.44206,3.54251 1.57227,4.81055 l 0.0137,0.0176 c 1.07439,1.17922 2.67163,1.81836 4.2793,1.81836 1.58676,0 3.15883,-0.67433 4.22656,-1.84375 1.15904,-1.26944 1.61328,-2.99609 1.61328,-4.85352 v -8.82227 h 5.09766 c 5.01834,0 9.08416,-1.04637 11.97461,-3.45507 l 0.006,-0.006 c 2.87765,-2.4189 4.30273,-6.07647 4.30273,-10.37305 0,-2.0372 -0.33304,-3.94296 -1.03125,-5.66797 -0.69651,-1.72079 -1.75229,-3.22606 -3.12304,-4.43359 l -0.002,-0.002 c -1.36046,-1.21336 -2.99648,-2.08284 -4.81836,-2.58984 -1.89091,-0.53912 -4.27647,-0.75195 -7.30859,-0.75195 z m 0,3.9707 h 9.92188 c 2.83221,0 4.95886,0.23936 6.22656,0.60156 l 0.0137,0.004 c 1.29978,0.36105 2.35154,0.93225 3.2461,1.73047 l 0.0117,0.01 c 0.91583,0.80483 1.59194,1.75967 2.07421,2.95118 0.48234,1.19166 0.74024,2.56911 0.74024,4.17773 0,3.47914 -0.97299,5.7214 -2.88477,7.33008 -1.90153,1.58226 -4.97018,2.5332 -9.42773,2.5332 h -7.08203 l -1.98633,1.98438 v 10.80859 c 0,1.23284 -0.27493,1.84799 -0.57422,2.17578 -0.3906,0.4278 -0.65946,0.55078 -1.29492,0.55078 -0.71348,0 -0.98834,-0.14256 -1.33399,-0.51953 -0.29124,-0.33076 -0.56054,-0.94453 -0.56054,-2.15625 v -29.42578 c 0,-1.39752 0.32285,-1.99169 0.54101,-2.19531 0.25572,-0.23867 0.95138,-0.56055 2.36914,-0.56055 z m 2.83985,1.83789 -1.98633,1.98438 v 11.66797 l 1.98633,1.98437 h 5.20703 c 1.95855,0 3.66,-0.19659 5.14453,-0.66211 8.5e-4,-2.6e-4 10e-4,-0.002 0.002,-0.002 1.54461,-0.47911 2.90009,-1.34434 3.82032,-2.58789 0.94728,-1.28012 1.35156,-2.88326 1.35156,-4.5918 0,-2.0729 -0.66958,-4.02812 -2.01758,-5.4707 l -0.0371,-0.0371 c -1.83286,-1.86151 -4.59266,-2.28516 -8.26367,-2.28516 z m 1.98437,3.9707 h 3.22266 c 3.21967,0 5.0124,0.69511 5.41601,1.0918 0.61538,0.66981 0.93165,1.45171 0.93165,2.73047 0,1.10396 -0.23483,1.77447 -0.57227,2.23047 -0.36399,0.49187 -0.88507,0.87325 -1.80469,1.1582 l -0.008,0.004 c -0.94441,0.29681 -2.27863,0.48047 -3.96289,0.48047 h -3.22266 z"
         id="path3351" />
      <path
         style="color:#000000;-inkscape-font-specification:'Arial Rounded MT Bold, Normal';fill:#000000;fill-rule:nonzero;stroke:none;stroke-linecap:butt;stroke-linejoin:miter;-inkscape-stroke:none"
         d="m 366.55859,520.89844 c -1.59704,0 -3.18492,0.64702 -4.2539,1.82031 l -0.0156,0.0176 c -1.13107,1.27245 -1.54492,2.97932 -1.54492,4.83594 v 29.40039 c 0,1.95619 0.41496,3.73297 1.66016,5.00781 l 0.0156,0.0156 c 1.27432,1.27433 3.07339,1.70118 5.05078,1.70118 h 18.67188 c 1.56651,0 3.05648,-0.36012 4.1914,-1.34571 l 0.0215,-0.0195 c 1.04894,-0.93854 1.65234,-2.3683 1.65234,-3.77148 0,-1.4024 -0.62646,-2.81741 -1.66797,-3.75782 -1.11836,-1.02425 -2.63018,-1.42968 -4.19726,-1.42968 H 372.44924 V 527.5723 c 0,-1.87687 -0.44181,-3.61015 -1.63086,-4.86719 -1.07422,-1.16787 -2.66021,-1.80664 -4.25977,-1.80664 z m 0,3.9707 c 0.71872,0 0.99649,0.14015 1.34571,0.52344 l 0.0312,0.0332 c 0.25716,0.26941 0.54297,0.87206 0.54297,2.14649 v 27.78515 l 1.98632,1.98633 h 15.67774 c 0.9283,0 1.31939,0.20238 1.51953,0.38672 l 0.0176,0.0156 c 0.30635,0.27493 0.35742,0.38128 0.35742,0.81446 0,0.46282 -0.0648,0.56464 -0.32227,0.79687 -0.18765,0.15967 -0.61362,0.36914 -1.57226,0.36914 H 367.4707 c -1.38324,0 -2.0085,-0.31457 -2.23047,-0.5332 -0.21307,-0.22152 -0.52539,-0.85095 -0.52539,-2.2207 v -29.40039 c 0,-1.26148 0.28044,-1.89331 0.53711,-2.18555 0.34985,-0.381 0.61841,-0.51758 1.30664,-0.51758 z"
         id="path3353" />
      <path
         style="color:#000000;-inkscape-font-specification:'Arial Rounded MT Bold, Normal';fill:#000000;fill-rule:nonzero;stroke:none;stroke-linecap:butt;stroke-linejoin:miter;-inkscape-stroke:none"
         d="m 409.24023,520.89844 c -3.12087,0 -5.98,0.49394 -8.53906,1.51953 -8.3e-4,3.3e-4 -10e-4,0.002 -0.002,0.002 -2.54402,1.0026 -4.75765,2.48781 -6.5586,4.42578 -1.79751,1.93429 -3.16388,4.27348 -4.09375,6.94922 l -0.004,0.0117 c -0.91131,2.67698 -1.35547,5.59091 -1.35547,8.71289 0,3.04907 0.42684,5.92768 1.29492,8.60742 l 0.004,0.0117 c 0.89195,2.69483 2.22811,5.06227 4.0039,7.0332 1.78694,1.98331 4.02535,3.52284 6.63086,4.59571 l 0.0117,0.004 c 2.63078,1.06392 5.56595,1.57618 8.76367,1.57618 3.21003,0 6.13717,-0.50062 8.73829,-1.54883 2.58223,-1.0406 4.81559,-2.5768 6.61718,-4.57422 1.78741,-1.98169 3.12678,-4.33196 4.00391,-6.98242 0.87446,-2.64238 1.29883,-5.53947 1.29883,-8.66992 0,-4.2331 -0.77605,-8.02366 -2.39063,-11.29297 l -0.002,-0.002 c -1.61953,-3.29568 -4.08388,-5.91267 -7.25586,-7.69531 l -0.004,-0.002 c -3.17514,-1.8106 -6.9355,-2.68164 -11.16211,-2.68164 z m 0,3.9707 c 3.68839,0 6.71544,0.74498 9.19922,2.16211 l 0.0117,0.006 c 2.51561,1.4112 4.35342,3.3559 5.64844,5.99219 l 0.002,0.006 c 1.30081,2.63259 1.98242,5.78575 1.98242,9.53711 0,2.77231 -0.37488,5.23786 -1.09765,7.42187 -0.72009,2.17592 -1.77656,4.01034 -3.1836,5.57031 -1.39285,1.54425 -3.0818,2.71639 -5.15234,3.55078 -2.05165,0.82679 -4.45701,1.26172 -7.25391,1.26172 -2.77375,0 -5.18239,-0.44175 -7.27343,-1.28711 h -0.002 c -2.1108,-0.8711 -3.81161,-2.05559 -5.18164,-3.57617 -1.38139,-1.53319 -2.43988,-3.38112 -3.17968,-5.61133 l -0.002,-0.006 c -6.8e-4,-0.002 -0.001,-0.004 -0.002,-0.006 -0.72669,-2.24767 -1.09766,-4.69555 -1.09766,-7.37109 0,-2.7414 0.3878,-5.20596 1.14063,-7.42187 l 0.002,-0.006 c 0.77138,-2.21734 1.85241,-4.04114 3.24805,-5.54297 1.3929,-1.49888 3.06916,-2.63455 5.10742,-3.4375 l 0.0117,-0.004 c 2.02141,-0.81163 4.36437,-1.23828 7.07226,-1.23828 z m 0,2.17578 c -1.79645,0 -3.52145,0.34958 -5.10351,1.05664 -0.001,5.9e-4 -0.003,0.001 -0.004,0.002 -1.56641,0.69139 -2.94732,1.72484 -4.08008,3.04296 l -0.0117,0.0137 c -1.14151,1.35289 -1.99641,3.01951 -2.61329,4.94726 l -0.004,0.0117 c -0.60883,1.94432 -0.89844,4.08217 -0.89844,6.40039 0,2.33425 0.29088,4.49565 0.89648,6.46875 l 0.004,0.0156 c 0.61989,1.95652 1.50942,3.66396 2.69922,5.0625 l 0.0195,0.0234 c 1.17501,1.33708 2.56295,2.38719 4.12109,3.08203 l 0.01,0.004 c 1.56706,0.68951 3.2798,1.02734 5.07031,1.02734 2.30706,0 4.50722,-0.59682 6.45508,-1.76367 l 0.002,-0.002 c 2.04014,-1.21205 3.63247,-3.09133 4.73829,-5.43945 1.14938,-2.40403 1.67382,-5.24501 1.67382,-8.47852 0,-3.00887 -0.48435,-5.7129 -1.52148,-8.06641 -1.0342,-2.34683 -2.60275,-4.24916 -4.64063,-5.51367 -1.99422,-1.26506 -4.32251,-1.89453 -6.8125,-1.89453 z m 0,3.9707 c 1.84719,0 3.35395,0.42946 4.69141,1.2793 l 0.0195,0.0117 c 1.32382,0.81886 2.33827,2.00266 3.10742,3.74805 0.76841,1.7437 1.18555,3.88344 1.18555,6.46484 0,2.80405 -0.46234,5.04748 -1.28906,6.77344 l -0.006,0.0117 c -0.83812,1.781 -1.88491,2.95425 -3.17578,3.7207 l -0.008,0.006 c -1.34888,0.80933 -2.77164,1.20117 -4.41992,1.20117 -1.2975,0 -2.43114,-0.23467 -3.46679,-0.68945 -1.00485,-0.44876 -1.90389,-1.11845 -2.73829,-2.06445 -0.78296,-0.92398 -1.43702,-2.12574 -1.92578,-3.66407 -0.46941,-1.53223 -0.71875,-3.29191 -0.71875,-5.29492 0,-1.98514 0.25024,-3.71693 0.7168,-5.20898 0.4928,-1.53721 1.12914,-2.71474 1.85938,-3.58203 0.77237,-0.89663 1.64211,-1.54301 2.67187,-1.9961 l 0.01,-0.006 c 1.05575,-0.47231 2.194,-0.71094 3.48632,-0.71094 z"
         id="path3355" />
      <path
         style="color:#000000;-inkscape-font-specification:'Arial Rounded MT Bold, Normal';fill:#000000;fill-rule:nonzero;stroke:none;stroke-linecap:butt;stroke-linejoin:miter;-inkscape-stroke:none"
         d="m 453.01758,520.89844 c -3.31527,0 -6.34851,0.48857 -9.06836,1.50195 -0.001,5.1e-4 -0.003,10e-4 -0.004,0.002 -2.70562,0.99143 -5.06369,2.46018 -6.99414,4.39063 -1.93382,1.93381 -3.39716,4.29606 -4.37109,7.00781 -0.97111,2.70387 -1.44531,5.65615 -1.44531,8.82227 0,3.21859 0.48401,6.19396 1.47851,8.89062 l 0.004,0.0117 c 1.00809,2.68191 2.47189,5.02079 4.3789,6.94727 1.90928,1.92875 4.22969,3.40248 6.88672,4.39648 2.6605,0.9953 5.57915,1.47852 8.7168,1.47852 2.66797,0 5.17015,-0.30227 7.49414,-0.92579 2.31147,-0.62014 4.67498,-1.59472 7.09766,-2.90625 l 0.002,-0.002 c 0.90024,-0.48926 1.67862,-1.02052 2.33789,-1.63086 0.72704,-0.65609 1.30924,-1.47264 1.61914,-2.40234 l 0.006,-0.0176 c 0.28923,-0.89399 0.38281,-1.85092 0.38281,-2.95312 v -7.31836 c 0,-1.5474 -0.24102,-2.93573 -1.0625,-4.10157 -0.6893,-1.00028 -1.75178,-1.76458 -2.93164,-2.0664 -0.96848,-0.24776 -2.03276,-0.34961 -3.22656,-0.34961 h -8.77539 c -1.40619,0 -2.80455,0.41046 -3.8457,1.33594 l -0.0195,0.0176 c -0.98008,0.89607 -1.55859,2.25279 -1.55859,3.57618 0,1.5049 0.73545,3.12689 2.06445,3.91796 l 0.0176,0.0117 c 1.22637,0.713 2.639,0.91992 4.2793,0.91992 h 4.0039 v 2.9004 c -1.13825,0.54815 -2.27459,1.08872 -3.37109,1.41406 l -0.006,0.002 c -1.36284,0.40886 -2.84036,0.61914 -4.45508,0.61914 -3.24305,0 -5.41906,-0.9536 -7.10547,-2.91992 l -0.002,-0.002 c -1.65544,-1.9512 -2.59961,-4.87561 -2.59961,-9.05078 0,-1.89617 0.2378,-3.57788 0.69141,-5.0625 0.47127,-1.48546 1.11387,-2.66572 1.90625,-3.59766 l 0.002,-0.002 c 0.81952,-0.9602 1.7605,-1.65648 2.89453,-2.14649 l 0.0195,-0.008 c 1.12085,-0.49816 2.42749,-0.76758 3.98438,-0.76758 1.53758,0 2.67644,0.24158 3.42773,0.59375 l 0.0117,0.006 c 0.92682,0.42776 1.57211,0.91286 2.01172,1.42188 0.5512,0.63824 1.32611,1.71051 2.25195,3.1582 l 0.0762,0.11133 c 0.51574,0.69623 1.19114,1.27761 1.96093,1.67578 l 0.0234,0.0117 c 0.77338,0.38668 1.6362,0.59961 2.50195,0.59961 1.45193,0 2.89674,-0.56322 3.94727,-1.5625 1.06421,-1.01354 1.71094,-2.46896 1.71094,-3.9375 0,-1.36093 -0.44747,-2.68723 -1.17383,-4.03907 -0.76561,-1.42489 -1.86936,-2.71277 -3.25391,-3.88281 -1.4674,-1.24006 -3.29502,-2.19907 -5.44336,-2.93555 -2.23243,-0.78331 -4.73022,-1.15429 -7.47851,-1.15429 z m 0,3.9707 c 2.39058,0 4.43817,0.32411 6.16406,0.92969 l 0.0156,0.006 c 1.80357,0.61701 3.18323,1.37442 4.17773,2.21484 1.08073,0.91329 1.83593,1.82897 2.32031,2.73047 0.52364,0.97455 0.70117,1.71552 0.70117,2.16016 0,0.47483 -0.0847,0.68675 -0.47656,1.06054 -5.2e-4,5e-4 -0.001,-4.9e-4 -0.002,0 -6e-4,5.8e-4 6e-4,0.001 0,0.002 -0.37197,0.35325 -0.64812,0.46679 -1.20899,0.46679 -0.24007,0 -0.4507,-0.0482 -0.71093,-0.17578 -0.2315,-0.12153 -0.40813,-0.2665 -0.58399,-0.5039 l 0.0781,0.11132 c -0.98387,-1.53841 -1.82356,-2.72373 -2.5918,-3.61328 -0.87742,-1.01596 -2.01829,-1.81254 -3.34375,-2.42578 -0.001,-5.1e-4 -0.003,5.2e-4 -0.004,0 -1.47017,-0.68837 -3.17617,-0.9707 -5.10937,-0.9707 -2.01437,0 -3.89565,0.35753 -5.58399,1.10547 -1.67491,0.7249 -3.1455,1.81492 -4.33789,3.21289 l -0.002,0.002 c -1.18404,1.39176 -2.06739,3.07343 -2.67187,4.98438 l -0.006,0.0176 c -0.58667,1.91646 -0.86719,3.99963 -0.86719,6.23243 0,4.78183 1.10412,8.74786 3.54492,11.62304 l 0.004,0.006 c 2.44474,2.85563 6.01446,4.31445 10.1289,4.31445 1.961,0 3.83213,-0.25882 5.59375,-0.7871 h 0.002 c 1.72153,-0.51125 3.44282,-1.23386 5.16211,-2.15821 l 1.04492,-1.74804 v -6.19922 l -1.98438,-1.98438 h -5.99023 c -1.23321,0 -1.99584,-0.2259 -2.26758,-0.38086 -0.12326,-0.0692 -0.12305,0.0714 -0.12305,-0.49804 0,-0.36994 0.0381,-0.42704 0.25977,-0.63086 0.20826,-0.18264 0.48958,-0.32813 1.19336,-0.32813 h 8.77539 c 0.95898,0 1.71762,0.0904 2.24219,0.22461 0.30783,0.0788 0.43661,0.16217 0.65039,0.47461 l 0.0215,0.0293 c 0.1068,0.15031 0.33594,0.73402 0.33594,1.81836 v 7.31836 c 0,0.8365 -0.0973,1.43181 -0.18945,1.7207 -0.0715,0.21177 -0.19874,0.43082 -0.50782,0.70898 l -0.0254,0.0234 c -0.34398,0.32026 -0.85794,0.68808 -1.54687,1.0625 -2.19445,1.18776 -4.27575,2.03507 -6.23438,2.56055 -1.94683,0.52232 -4.09809,0.79101 -6.46484,0.79101 -2.7304,0 -5.15834,-0.4163 -7.32422,-1.22656 -2.16935,-0.81156 -3.96353,-1.96197 -5.45703,-3.4707 -1.49479,-1.51004 -2.65036,-3.33489 -3.48242,-5.54688 -5.4e-4,-10e-4 -10e-4,-0.002 -0.002,-0.004 -0.80834,-2.19646 -1.22851,-4.68758 -1.22851,-7.50586 0,-2.77138 0.41317,-5.25184 1.21289,-7.47852 0.79689,-2.2188 1.93772,-4.04124 3.44141,-5.54492 1.50604,-1.50605 3.33153,-2.65659 5.55468,-3.4707 l 0.0117,-0.004 c 2.20782,-0.82404 4.76127,-1.25586 7.69141,-1.25586 z"
         id="path3357" />
      <path
         style="color:#000000;-inkscape-font-specification:'Arial Rounded MT Bold, Normal';fill:#000000;fill-rule:nonzero;stroke:none;stroke-linecap:butt;stroke-linejoin:miter;-inkscape-stroke:none"
         d="m 493.7207,520.89844 c -3.12087,0 -5.98195,0.49394 -8.54101,1.51953 -8.4e-4,3.3e-4 -10e-4,0.002 -0.002,0.002 -2.54401,1.0026 -4.75764,2.48781 -6.55859,4.42578 -1.79752,1.93429 -3.16193,4.27348 -4.0918,6.94922 l -0.004,0.0117 c -0.91132,2.67698 -1.35742,5.59091 -1.35742,8.71289 0,3.04907 0.42683,5.92768 1.29492,8.60742 l 0.004,0.0117 c 0.89195,2.69483 2.22812,5.06227 4.00391,7.0332 1.78694,1.98331 4.02534,3.52284 6.63086,4.59571 l 0.0117,0.004 c 2.63078,1.06392 5.5679,1.57618 8.76562,1.57618 3.21003,0 6.13522,-0.50062 8.73633,-1.54883 2.58223,-1.0406 4.81559,-2.5768 6.61719,-4.57422 1.7874,-1.98169 3.12678,-4.33196 4.0039,-6.98242 0.87446,-2.64238 1.29883,-5.53947 1.29883,-8.66992 0,-4.2331 -0.77605,-8.02366 -2.39062,-11.29297 l -0.002,-0.002 c -1.62041,-3.29748 -4.08723,-5.91456 -7.26171,-7.69726 -3.17449,-1.80939 -6.93298,-2.68164 -11.15821,-2.68164 z m 0,3.9707 c 3.68839,0 6.71348,0.74498 9.19727,2.16211 l 0.0137,0.006 c 2.51561,1.4112 4.35147,3.3559 5.64648,5.99219 l 0.002,0.006 c 1.30081,2.63259 1.98242,5.78575 1.98242,9.53711 0,2.77231 -0.37489,5.23786 -1.09766,7.42187 -0.72008,2.17592 -1.77656,4.01034 -3.18359,5.57031 -1.39285,1.54425 -3.08181,2.71639 -5.15234,3.55078 -2.05166,0.82679 -4.45506,1.26172 -7.25196,1.26172 -2.77375,0 -5.18435,-0.44175 -7.27539,-1.28711 h -0.002 c -2.1108,-0.8711 -3.81162,-2.05559 -5.18164,-3.57617 -1.38139,-1.53319 -2.43989,-3.38112 -3.17969,-5.61133 l -0.002,-0.006 c -6.8e-4,-0.002 -0.001,-0.004 -0.002,-0.006 -0.72669,-2.24767 -1.09765,-4.69555 -1.09765,-7.37109 0,-2.7414 0.3878,-5.20596 1.14062,-7.42187 l 0.002,-0.006 c 0.77138,-2.21734 1.85436,-4.04114 3.25,-5.54297 1.3929,-1.49888 3.06721,-2.63455 5.10547,-3.4375 l 0.0117,-0.004 c 2.02141,-0.81163 4.36633,-1.23828 7.07422,-1.23828 z m 0,2.17578 c -1.79645,0 -3.5234,0.34958 -5.10547,1.05664 -10e-4,5.9e-4 -0.003,0.001 -0.004,0.002 -1.56642,0.69139 -2.94732,1.72484 -4.08008,3.04296 l -0.0117,0.0137 c -1.1415,1.35289 -1.9964,3.01951 -2.61328,4.94726 l -0.002,0.0117 c -0.60883,1.94432 -0.89844,4.08217 -0.89844,6.40039 0,2.33425 0.28893,4.49565 0.89453,6.46875 l 0.006,0.0156 c 0.61989,1.95652 1.50747,3.66396 2.69727,5.0625 l 0.0215,0.0234 c 1.17501,1.33708 2.56099,2.38719 4.11914,3.08203 l 0.01,0.004 c 1.56705,0.68951 3.2798,1.02734 5.07031,1.02734 2.30706,0 4.50917,-0.59682 6.45703,-1.76367 l 0.002,-0.002 c 2.04014,-1.21205 3.63051,-3.09133 4.73633,-5.43945 1.14939,-2.40403 1.67578,-5.24501 1.67578,-8.47852 0,-3.00887 -0.4863,-5.7129 -1.52344,-8.06641 -1.03419,-2.34683 -2.60274,-4.24916 -4.64062,-5.51367 -1.99423,-1.26506 -4.32056,-1.89453 -6.81055,-1.89453 z m 0,3.9707 c 1.84719,0 3.352,0.42946 4.68946,1.2793 l 0.0215,0.0117 c 1.32382,0.81886 2.33827,2.00266 3.10742,3.74805 0.76841,1.7437 1.18555,3.88344 1.18555,6.46484 0,2.80405 -0.46234,5.04748 -1.28906,6.77344 l -0.006,0.0117 c -0.83812,1.781 -1.88491,2.95425 -3.17578,3.7207 l -0.008,0.006 c -1.34888,0.80933 -2.77359,1.20117 -4.42187,1.20117 -1.29835,0 -2.4306,-0.23605 -3.4668,-0.6914 -1.00568,-0.44932 -1.90524,-1.11689 -2.74023,-2.06446 -0.78345,-0.9251 -1.43515,-2.12737 -1.92383,-3.66797 -0.46843,-1.53106 -0.7168,-3.28822 -0.7168,-5.28906 0,-1.98514 0.25024,-3.71693 0.7168,-5.20898 0.4928,-1.53721 1.12718,-2.71474 1.85742,-3.58203 0.77237,-0.89663 1.64212,-1.54301 2.67188,-1.9961 l 0.0117,-0.006 c 1.05576,-0.47231 2.19401,-0.71094 3.48633,-0.71094 z"
         id="path3359" />
    </g>
    <g
       aria-label="&quot;This is where it starts.&quot;"
       id="text3046"
       style="font-size:14.1111px;font-family:Chiller;-inkscape-font-specification:'Chiller, Normal';fill-rule:evenodd;stroke-width:1.5;stroke-linecap:round;stroke-linejoin:bevel">
      <path
         d="m 65.958705,152.95944 -0.03445,0.0689 v 0.18603 l 0.01378,0.29628 -0.01378,0.26872 v 0.33762 l -0.04134,0.24115 -0.04134,0.26872 -0.02756,0.22048 -0.02756,0.26872 0.01378,0.2825 -0.01378,0.26872 0.02756,0.26871 0.02756,0.15848 v 0.24805 l -0.02756,0.0896 -0.01378,0.0551 -0.02756,0.0551 -0.05512,0.0551 -0.06201,0.0413 -0.0689,-0.0413 -0.0689,-0.0551 -0.02756,-0.19981 -0.04134,-0.16537 -0.05512,-0.18603 -0.07579,-0.19293 -0.02756,-0.18603 0.02756,-0.11025 -0.05512,-0.22737 -0.02756,-0.22738 -0.04134,-0.29628 -0.05512,-0.3514 -0.07579,-0.33762 -0.0689,-0.25493 -0.01378,-0.1447 -0.02756,-0.1378 -0.08268,-0.13091 -0.02756,-0.0276 -0.07579,-0.0138 -0.05512,0.0138 -0.02756,0.0413 v 0.18603 l -0.01378,0.0827 -0.04134,0.19982 -0.01378,0.22737 -0.04134,0.24116 -0.02756,0.22049 -0.04134,0.37207 -0.03445,0.28249 -0.01378,0.31006 v 0.26872 l 0.01378,0.22049 v 0.21359 l -0.02756,0.19982 -0.05512,0.0413 -0.09646,0.0138 -0.09646,-0.0413 -0.144694,-0.39963 -0.02756,-0.32384 v -0.26872 l -0.04134,-0.26872 -0.01378,-0.23426 0.02756,-0.2825 -0.02756,-0.24116 0.02756,-0.39274 0.02756,-0.29628 v -0.3445 l -0.02756,-0.29628 -0.05512,-0.23427 -0.04823,-0.24116 -0.09646,-0.15847 -0.02756,-0.17914 v -0.24116 l 0.05512,-0.15848 0.08957,-0.15158 0.179145,-0.17225 0.158475,-0.0138 0.206705,0.0689 0.172255,0.0896 0.110243,0.12402 0.02756,0.0827 0.130914,0.062 h 0.420301 l 0.186035,0.0689 0.172255,0.0551 0.09646,0.1378 0.137803,0.19982 0.04823,0.26872 z m -2.191079,2.68029 -0.09646,0.0551 -0.07579,-0.0689 0.07579,-0.0551 h 0.09646 z m 1.708766,2.30132 -0.0689,0.0551 -0.117133,-0.0413 -0.01378,-0.0551 0.117133,-0.10336 0.08268,0.062 z"
         id="path3390" />
      <path
         d="m 74.082233,153.18682 -0.130913,0.0551 -0.09646,-0.0276 -0.282497,-0.0413 -0.392741,-0.0482 H 72.72487 l -0.551215,0.0344 -0.592556,0.0827 -0.530544,0.0138 -0.468533,0.0965 -0.37896,0.0689 -0.413411,0.13091 -0.310059,0.0827 -0.296278,0.0689 -0.09646,0.11714 -0.186035,0.11024 -0.241157,0.13091 -0.282497,0.0827 -0.378961,0.0551 -0.37896,0.0138 -0.337619,-0.11025 -0.199815,-0.13091 -0.199816,-0.1378 -0.179144,-0.15848 -0.02756,-0.19292 0.02756,-0.22738 0.124023,-0.17225 0.117133,-0.11025 0.179145,-0.0551 0.282497,-0.14469 0.268718,-0.0689 0.427191,-0.0413 H 68.5632 l 0.592556,0.0413 h 0.592556 l 0.633897,-0.0413 0.523654,-0.0138 0.227376,-0.0414 0.296278,0.0276 0.323839,-0.0551 0.351399,0.0689 0.323839,-0.0138 0.296278,0.0276 0.564995,0.0689 h 0.268717 l 0.454753,0.22737 0.0689,0.12403 z m -5.360564,-1.49517 -0.08957,0.11024 -0.110243,-0.11024 0.0689,-0.14469 0.130914,0.0413 z m 1.736327,2.63894 -0.07579,0.12402 -0.05512,0.2825 v 0.25494 l -0.04134,0.32384 v 0.28249 l -0.02756,0.22738 -0.05512,0.19293 0.05512,0.15847 -0.09646,0.17915 -0.02067,0.24115 v 0.2136 l -0.05512,0.26871 -0.02756,0.31006 -0.02756,0.24116 0.02756,0.2825 -0.05512,0.32384 -0.01378,0.31005 v 0.25494 l 0.01378,0.32384 0.02756,0.3514 -0.02756,0.33762 v 0.36518 l -0.04134,0.31695 0.02756,0.29627 v 0.32384 l 0.01378,0.29628 -0.01378,0.29628 -0.09646,0.0965 -0.02756,-0.0689 -0.03445,-0.13091 0.03445,-0.22049 0.01378,-0.26872 -0.06201,-0.15847 0.01378,-0.26872 -0.04134,-0.15158 -0.04134,-0.2136 v -0.7028 l -0.05512,-0.22737 v -0.25494 l -0.02756,-0.26872 v -0.32384 l -0.02756,-0.26871 v -0.2825 l 0.02756,-0.2825 v -0.37896 l -0.02756,-0.38585 v -0.60633 l -0.01378,-0.22049 0.05512,-0.2136 v -0.26871 l -0.01378,-0.33762 -0.117133,-0.32384 -0.0689,-0.29628 -0.110243,-0.22738 -0.02756,-0.22737 v -0.19293 l 0.09646,-0.15847 0.172255,-0.17226 0.220486,-0.0276 0.172254,0.062 0.199816,0.16537 0.151584,0.18603 z"
         id="path3392" />
      <path
         d="m 76.776296,161.55151 -0.04134,0.21359 -0.110243,0.15159 -0.06201,0.0482 H 76.43868 l -0.124023,-0.11714 0.179145,-0.12402 0.01378,-0.15847 0.02756,-0.11025 -0.0689,-0.33762 -0.02756,-0.32384 -0.0689,-0.53743 0.05512,-0.22738 -0.172255,-0.21359 -0.02756,-0.19293 0.04134,-0.13091 -0.0689,-0.16536 v -0.22738 l -0.05512,-0.17226 -0.124023,-0.1378 -0.08957,-0.13091 -0.151584,-0.24116 -0.04134,-0.2067 -0.186035,-0.15848 -0.09646,-0.0965 h -0.186036 l -0.351399,0.0689 -0.144694,0.0827 -0.179145,0.2825 -0.130913,0.37207 -0.05512,0.24805 -0.05512,0.13091 -0.04134,0.24116 -0.01378,0.25493 v 0.19293 l -0.02756,0.24116 v 0.79237 l 0.08268,0.53743 0.01378,0.23427 0.02756,0.24115 v 0.17226 l -0.01378,0.22737 -0.05512,0.12403 -0.08268,0.15847 -0.158474,0.0138 -0.110243,-0.062 -0.103353,-0.12402 0.05512,-0.2136 -0.04134,-0.19292 -0.02756,-0.48232 -0.0689,-0.24115 0.05512,-0.17915 -0.08268,-0.24115 -0.01378,-0.2825 -0.0689,-0.32384 v -0.29628 l -0.02756,-0.13091 -0.130914,-0.59256 -0.04134,-0.15158 v -0.29628 l -0.04134,-0.2136 -0.0689,-0.26871 -0.02067,-0.26872 0.02067,-0.29628 -0.04823,-0.1378 -0.0689,-0.50988 0.04134,-0.42719 -0.09646,-0.19292 -0.04134,-0.32384 -0.05512,-0.26872 v -0.2825 l 0.01378,-0.3514 -0.06201,-0.15847 0.06201,-0.12402 -0.01378,-0.24116 -0.117133,-0.24116 -0.04134,-0.26871 -0.05512,-0.12403 0.01378,-0.13091 -0.05512,-0.26872 -0.05512,-0.28249 -0.01378,-0.20671 0.151584,-0.2136 0.0689,-0.17225 0.103353,0.0413 0.05512,-0.11024 0.110242,-0.19982 0.213596,-0.0689 0.241157,0.0413 0.227376,0.0138 0.192925,0.1447 0.172255,0.22737 0.08268,0.17915 0.02756,0.28249 -0.05512,0.18604 -0.08268,0.17914 -0.07579,0.26872 -0.04134,0.32384 -0.02756,0.26872 v 0.37207 l -0.05512,0.33762 0.0689,0.25493 0.01378,0.32384 v 0.3514 l 0.01378,0.31006 -0.01378,0.33762 v 0.73725 l 0.158474,-0.17226 0.192925,-0.25493 0.399631,-0.13781 0.420301,0.0413 0.282498,0.0413 0.268717,0.0965 0.310059,0.18603 0.213595,0.29628 0.09646,0.17226 0.0689,0.39274 0.06201,0.28249 v 0.2825 l 0.04134,0.36518 0.01378,0.33762 v 0.2825 l 0.02756,0.26872 v 0.29627 l -0.04134,0.40652 0.04134,0.31695 0.01378,0.24805 z"
         id="path3394" />
      <path
         d="m 78.354149,154.1859 -0.110243,0.0689 -0.117133,-0.0276 0.03445,-0.12403 0.09646,-0.0413 z m 0.695908,0.25493 -0.02756,0.11025 -0.117133,0.13091 -0.09646,0.1378 v 0.13092 l 0.0689,0.12402 0.0689,0.0965 v 0.19982 l -0.0689,0.17225 -0.110243,0.13781 -0.144694,0.11713 -0.179145,0.0138 -0.199815,-0.0138 -0.117133,-0.0758 -0.137804,-0.0965 -0.124024,-0.1447 -0.158474,-0.19292 -0.0689,-0.18604 -0.02756,-0.1378 0.02756,-0.13092 0.0689,-0.15158 0.09646,-0.11713 0.199815,-0.11025 0.172255,-0.0276 0.254937,-0.0276 0.248046,-0.0689 0.172255,-0.0138 0.124023,0.0138 z m 0.08268,2.99034 -0.04134,0.0689 -0.144694,0.0758 -0.09646,0.0827 -0.04134,0.16536 -0.02756,0.22738 -0.07579,0.22738 0.04823,0.19981 -0.06201,0.16537 -0.01378,0.22737 -0.02756,0.24116 v 0.24116 l 0.02756,0.29627 -0.02756,0.22049 v 0.24116 l 0.04134,0.18603 0.06201,0.17915 -0.06201,0.21359 0.07579,0.18604 v 0.32384 l 0.01378,0.12402 0.05512,0.18603 0.01378,0.19982 0.05512,0.1378 v 0.13092 l 0.05512,0.12402 -0.0689,0.12402 -0.08268,0.0344 -0.05512,-0.0344 -0.06201,-0.1378 -0.04134,-0.15847 -0.02756,-0.12403 -0.0689,-0.1378 v -0.13091 l -0.09646,-0.2136 v -0.19293 l -0.02756,-0.14469 v -0.19293 l -0.04823,-0.17225 -0.02756,-0.4203 -0.02756,-0.11713 -0.01378,-0.26872 0.01378,-0.17915 -0.01378,-0.19981 v -0.17226 l -0.0689,-0.1378 -0.117133,-0.0689 -0.08268,-0.0896 -0.08268,-0.26872 -0.02756,-0.15159 v -0.55121 l 0.02756,-0.24116 -0.04134,-0.25493 -0.01378,-0.16537 -0.05512,-0.15847 0.05512,-0.16537 0.08268,-0.13091 0.110243,-0.0413 0.158474,-0.0413 0.172255,0.0413 0.124023,0.11024 0.124023,0.10335 h 0.158475 l 0.110243,0.11025 0.103352,0.0689 0.08268,0.0758 z"
         id="path3396" />
      <path
         d="m 79.95267,157.26581 -0.103352,0.0551 -0.110243,-0.0896 0.08268,-0.11024 0.130913,0.0276 z m 3.128145,3.2315 -0.02756,0.19292 -0.0689,0.2136 -0.09646,0.18603 -0.144694,0.13781 -0.179145,0.15847 -0.158474,0.0551 -0.172255,0.0965 -0.151584,0.0689 -0.213596,0.0138 H 81.43406 l -0.144694,-0.11025 -0.192925,-0.0138 -0.268717,-0.0689 -0.227376,-0.0896 -0.130914,-0.11024 -0.137803,-0.0551 -0.08268,-0.15848 -0.07579,-0.15158 v -0.19982 l 0.07579,-0.19981 0.05512,-0.12403 0.09646,-0.1378 0.117133,-0.0207 0.05512,0.11713 -0.05512,0.15159 -0.01378,0.17225 v 0.19982 l 0.09646,0.15158 0.186035,0.0689 0.192925,0.0758 0.172255,0.0689 0.282497,0.0276 0.179145,0.0827 0.227376,-0.0551 0.186035,-0.0551 0.137804,-0.0827 0.186035,-0.13091 0.137804,-0.11024 0.103353,-0.10336 0.01378,-0.19292 v -0.22738 l -0.0689,-0.17225 -0.144694,-0.17915 -0.199815,-0.0689 -0.234267,-0.11713 -0.08957,-0.0827 -0.254937,-0.13092 -0.179145,-0.11024 -0.199815,-0.0827 -0.124023,-0.0689 -0.186035,-0.0482 -0.124024,-0.0138 -0.172254,-0.0965 -0.158475,-0.0965 -0.09646,-0.17226 -0.09646,-0.1378 -0.0689,-0.18603 -0.01378,-0.2136 0.05512,-0.19293 0.01378,-0.17225 0.08268,-0.19982 0.110243,-0.16536 0.117133,-0.15847 0.02756,-0.0827 0.09646,-0.12402 h 0.130913 l 0.04134,-0.14469 0.151584,-0.0413 0.158475,-0.0827 0.186035,-0.0138 0.206705,-0.0344 0.268717,-0.0827 0.241157,-0.0551 h 0.199815 l 0.192925,0.0551 0.144694,0.0827 0.165365,0.13091 0.103353,0.0689 0.110243,0.15847 0.04134,0.0965 v 0.19982 l -0.09646,0.15158 -0.09646,0.10336 -0.172254,0.0689 -0.282498,0.0276 -0.227376,-0.0276 -0.192925,-0.0138 -0.213596,0.0413 -0.199815,0.0965 -0.137804,0.10335 -0.130914,0.13781 -0.05512,0.19981 0.08268,0.15159 0.130914,0.11713 0.179145,0.0413 0.130913,0.0965 0.124023,0.11025 0.144694,0.11713 0.124024,0.1378 0.130913,0.0276 0.110243,0.062 0.09646,0.12402 0.130913,0.0551 0.124024,0.0758 0.144694,0.12403 0.110243,0.1378 0.01378,0.19982 0.04134,0.22737 z"
         id="path3398" />
      <path
         d="m 88.400039,154.1859 -0.110243,0.0689 -0.117134,-0.0276 0.03445,-0.12403 0.09646,-0.0413 z m 0.695908,0.25493 -0.02756,0.11025 -0.117134,0.13091 -0.09646,0.1378 v 0.13092 l 0.0689,0.12402 0.0689,0.0965 v 0.19982 l -0.0689,0.17225 -0.110243,0.13781 -0.144694,0.11713 -0.179145,0.0138 -0.199815,-0.0138 -0.117134,-0.0758 -0.137803,-0.0965 -0.124024,-0.1447 -0.158474,-0.19292 -0.0689,-0.18604 -0.02756,-0.1378 0.02756,-0.13092 0.0689,-0.15158 0.09646,-0.11713 0.199815,-0.11025 0.172255,-0.0276 0.254937,-0.0276 0.248046,-0.0689 0.172255,-0.0138 0.124023,0.0138 z m 0.08268,2.99034 -0.04134,0.0689 -0.144694,0.0758 -0.09646,0.0827 -0.04134,0.16536 -0.02756,0.22738 -0.07579,0.22738 0.04823,0.19981 -0.06201,0.16537 -0.01378,0.22737 -0.02756,0.24116 v 0.24116 l 0.02756,0.29627 -0.02756,0.22049 v 0.24116 l 0.04134,0.18603 0.06201,0.17915 -0.06201,0.21359 0.07579,0.18604 v 0.32384 l 0.01378,0.12402 0.05512,0.18603 0.01378,0.19982 0.05512,0.1378 v 0.13092 l 0.05512,0.12402 -0.0689,0.12402 -0.08268,0.0344 -0.05512,-0.0344 -0.06201,-0.1378 -0.04134,-0.15847 -0.02756,-0.12403 -0.0689,-0.1378 v -0.13091 l -0.09646,-0.2136 v -0.19293 l -0.02756,-0.14469 v -0.19293 l -0.04823,-0.17225 -0.02756,-0.4203 -0.02756,-0.11713 -0.01378,-0.26872 0.01378,-0.17915 -0.01378,-0.19981 v -0.17226 l -0.0689,-0.1378 -0.117134,-0.0689 -0.08268,-0.0896 -0.08268,-0.26872 -0.02756,-0.15159 v -0.55121 l 0.02756,-0.24116 -0.04134,-0.25493 -0.01378,-0.16537 -0.05512,-0.15847 0.05512,-0.16537 0.08268,-0.13091 0.110243,-0.0413 0.158474,-0.0413 0.172255,0.0413 0.124023,0.11024 0.124023,0.10335 h 0.158475 l 0.110242,0.11025 0.103353,0.0689 0.08268,0.0758 z"
         id="path3400" />
      <path
         d="m 89.998561,157.26581 -0.103353,0.0551 -0.110242,-0.0896 0.08268,-0.11024 0.130913,0.0276 z m 3.128145,3.2315 -0.02756,0.19292 -0.0689,0.2136 -0.09646,0.18603 -0.144694,0.13781 -0.179144,0.15847 -0.158475,0.0551 -0.172254,0.0965 -0.151584,0.0689 -0.213596,0.0138 h -0.434082 l -0.144694,-0.11025 -0.192925,-0.0138 -0.268717,-0.0689 -0.227376,-0.0896 -0.130914,-0.11024 -0.137804,-0.0551 -0.08268,-0.15848 -0.07579,-0.15158 v -0.19982 l 0.07579,-0.19981 0.05512,-0.12403 0.09646,-0.1378 0.117133,-0.0207 0.05512,0.11713 -0.05512,0.15159 -0.01378,0.17225 v 0.19982 l 0.09646,0.15158 0.186035,0.0689 0.192925,0.0758 0.172255,0.0689 0.282497,0.0276 0.179145,0.0827 0.227376,-0.0551 0.186035,-0.0551 0.137804,-0.0827 0.186035,-0.13091 0.137804,-0.11024 0.103352,-0.10336 0.01378,-0.19292 v -0.22738 l -0.0689,-0.17225 -0.144694,-0.17915 -0.199815,-0.0689 -0.234267,-0.11713 -0.08957,-0.0827 -0.254937,-0.13092 -0.179145,-0.11024 -0.199815,-0.0827 -0.124024,-0.0689 -0.186035,-0.0482 -0.124023,-0.0138 -0.172255,-0.0965 -0.158474,-0.0965 -0.09646,-0.17226 -0.09646,-0.1378 -0.0689,-0.18603 -0.01378,-0.2136 0.05512,-0.19293 0.01378,-0.17225 0.08268,-0.19982 0.110243,-0.16536 0.117133,-0.15847 0.02756,-0.0827 0.09646,-0.12402 h 0.130914 l 0.04134,-0.14469 0.151584,-0.0413 0.158474,-0.0827 0.186035,-0.0138 0.206706,-0.0344 0.268717,-0.0827 0.241157,-0.0551 h 0.199815 l 0.192925,0.0551 0.144694,0.0827 0.165365,0.13091 0.103352,0.0689 0.110243,0.15847 0.04134,0.0965 v 0.19982 l -0.09646,0.15158 -0.09646,0.10336 -0.172254,0.0689 -0.282498,0.0276 -0.227376,-0.0276 -0.192925,-0.0138 -0.213596,0.0413 -0.199815,0.0965 -0.137804,0.10335 -0.130914,0.13781 -0.05512,0.19981 0.08268,0.15159 0.130914,0.11713 0.179144,0.0413 0.130914,0.0965 0.124023,0.11025 0.144694,0.11713 0.124023,0.1378 0.130914,0.0276 0.110243,0.062 0.09646,0.12402 0.130913,0.0551 0.124023,0.0758 0.144694,0.12403 0.110243,0.1378 0.01378,0.19982 0.04134,0.22737 z"
         id="path3402" />
      <path
         d="m 101.53962,157.94105 -0.0413,0.0689 -0.0758,-0.0551 v -0.0551 l 0.0758,-0.0276 z m 0.7717,-0.36518 -0.0413,0.11024 -0.0551,0.11024 -0.0689,0.19982 -0.13091,0.15847 -0.0551,0.13781 -0.0689,0.21359 -0.0827,0.24116 -0.0138,0.23427 -0.062,0.19981 v 0.2136 l -0.0138,0.12402 -0.0413,0.17226 -0.0276,0.21359 -0.0276,0.26183 -0.0138,0.22737 -0.0276,0.19982 -0.0827,0.2136 -0.10335,0.19292 -0.0138,0.18604 v 0.16536 l -0.0551,0.18604 v 0.19981 l -0.0276,0.12402 -0.0413,0.11714 -0.15848,0.0689 h -0.11024 l -0.0827,-0.11713 -0.0482,-0.22049 -0.0138,-0.17225 -0.0965,-0.0965 -0.0138,-0.11713 -0.0413,-0.15158 -0.0689,-0.2825 -0.0276,-0.18604 -0.0344,-0.1378 -0.0413,-0.15848 -0.0413,-0.16536 -0.0413,-0.11713 v -0.13781 l -0.0689,-0.11713 -0.0413,-0.11024 -0.062,-0.19982 -0.0138,-0.1378 -0.0551,-0.13092 -0.0827,-0.12402 -0.0827,-0.0689 -0.08957,0.0827 -0.04134,0.1447 -0.05512,0.15158 -0.01378,0.13091 -0.02756,0.0965 -0.08268,0.11024 -0.07579,0.19981 -0.0689,0.16537 -0.0689,0.19981 -0.01378,0.19982 -0.0689,0.17914 -0.04823,0.19982 -0.05512,0.2136 -0.04134,0.22737 -0.0689,0.16537 -0.05512,0.18603 -0.08957,0.12402 -0.137804,0.10336 -0.08268,0.0138 h -0.117133 l -0.09646,-0.062 -0.01378,-0.0965 -0.05512,-0.15158 -0.04134,-0.17226 -0.04823,-0.15847 -0.02756,-0.24805 -0.0689,-0.14469 v -0.15158 l -0.01378,-0.2136 v -0.18604 l -0.02756,-0.17914 -0.0689,-0.41341 -0.04823,-0.17915 -0.01378,-0.18603 0.01378,-0.17226 -0.02756,-0.2067 -0.04134,-0.18604 -0.0689,-0.1378 -0.04134,-0.15847 -0.05512,-0.12403 -0.08957,-0.0758 -0.09646,-0.11024 -0.05512,-0.13781 v -0.24115 l 0.09646,-0.1447 0.08268,-0.0965 0.186035,-0.0689 0.213596,0.0276 0.179145,0.0965 0.130913,0.0827 0.110243,0.13092 0.04134,0.11024 0.08957,0.13091 0.05512,0.17915 v 0.19981 l 0.02756,0.19982 -0.02756,0.23427 0.02756,0.22737 v 0.26872 l 0.02756,0.15847 0.02756,0.13781 0.02756,0.15847 v 0.12403 l 0.04134,0.0551 0.08957,-0.0413 0.08268,-0.0551 0.0689,-0.14469 0.04134,-0.15158 0.06201,-0.18604 0.151584,-0.40652 0.110243,-0.2136 0.103353,-0.15158 0.110242,-0.2136 0.08268,-0.19981 0.04823,-0.12402 0.0689,-0.11714 0.0551,-0.0689 0.15847,0.0138 0.0689,0.10335 v 0.13781 l -0.0138,0.15847 v 0.13781 l 0.0138,0.17225 0.0551,0.15158 0.0827,0.2136 0.0276,0.2136 0.0758,0.22048 0.0551,0.26872 0.0551,0.22738 0.0551,0.21359 0.0551,0.1378 v 0.17226 l 0.0482,0.17914 0.0276,0.15848 0.0413,0.12402 0.0276,0.1447 0.0551,0.0413 0.0827,-0.12403 v -0.13091 l -0.0276,-0.15158 -0.0827,-0.15848 -0.0138,-0.15158 0.0138,-0.15848 0.0551,-0.22737 0.0138,-0.17915 v -0.19981 l 0.0138,-0.2136 0.0551,-0.2067 0.10336,-0.19982 0.0413,-0.2136 0.0276,-0.16536 0.0965,-0.15847 0.0896,-0.13781 0.0965,-0.19981 0.0827,-0.18604 0.10335,-0.12402 0.11024,-0.15848 0.0551,-0.1378 0.10336,-0.11713 0.0689,-0.13781 0.11024,-0.0138 0.0138,0.0551 z"
         id="path3404" />
      <path
         d="m 106.71415,161.55151 -0.0413,0.21359 -0.11024,0.15159 -0.062,0.0482 h -0.12403 l -0.12402,-0.11714 0.17914,-0.12402 0.0138,-0.15847 0.0276,-0.11025 -0.0689,-0.33762 -0.0276,-0.32384 -0.0689,-0.53743 0.0551,-0.22738 -0.17225,-0.21359 -0.0276,-0.19293 0.0413,-0.13091 -0.0689,-0.16536 v -0.22738 l -0.0551,-0.17226 -0.12402,-0.1378 -0.0896,-0.13091 -0.15159,-0.24116 -0.0413,-0.2067 -0.18603,-0.15848 -0.0965,-0.0965 h -0.18604 l -0.3514,0.0689 -0.14469,0.0827 -0.17915,0.2825 -0.13091,0.37207 -0.0551,0.24805 -0.0551,0.13091 -0.0413,0.24116 -0.0138,0.25493 v 0.19293 l -0.0276,0.24116 v 0.79237 l 0.0827,0.53743 0.0138,0.23427 0.0276,0.24115 v 0.17226 l -0.0138,0.22737 -0.0551,0.12403 -0.0827,0.15847 -0.15847,0.0138 -0.11024,-0.062 -0.10336,-0.12402 0.0551,-0.2136 -0.0413,-0.19292 -0.0276,-0.48232 -0.0689,-0.24115 0.0551,-0.17915 -0.0827,-0.24115 -0.0138,-0.2825 -0.0689,-0.32384 v -0.29628 l -0.0276,-0.13091 -0.13092,-0.59256 -0.0413,-0.15158 v -0.29628 l -0.0413,-0.2136 -0.0689,-0.26871 -0.0207,-0.26872 0.0207,-0.29628 -0.0482,-0.1378 -0.0689,-0.50988 0.0413,-0.42719 -0.0965,-0.19292 -0.0413,-0.32384 -0.0551,-0.26872 v -0.2825 l 0.0138,-0.3514 -0.062,-0.15847 0.062,-0.12402 -0.0138,-0.24116 -0.11713,-0.24116 -0.0413,-0.26871 -0.0551,-0.12403 0.0138,-0.13091 -0.0551,-0.26872 -0.0551,-0.28249 -0.0138,-0.20671 0.15159,-0.2136 0.0689,-0.17225 0.10335,0.0413 0.0551,-0.11024 0.11025,-0.19982 0.21359,-0.0689 0.24116,0.0413 0.22737,0.0138 0.19293,0.1447 0.17225,0.22737 0.0827,0.17915 0.0276,0.28249 -0.0551,0.18604 -0.0827,0.17914 -0.0758,0.26872 -0.0413,0.32384 -0.0276,0.26872 v 0.37207 l -0.0551,0.33762 0.0689,0.25493 0.0138,0.32384 v 0.3514 l 0.0138,0.31006 -0.0138,0.33762 v 0.73725 l 0.15847,-0.17226 0.19293,-0.25493 0.39963,-0.13781 0.4203,0.0413 0.2825,0.0413 0.26872,0.0965 0.31006,0.18603 0.21359,0.29628 0.0965,0.17226 0.0689,0.39274 0.062,0.28249 v 0.2825 l 0.0413,0.36518 0.0138,0.33762 v 0.2825 l 0.0276,0.26872 v 0.29627 l -0.0413,0.40652 0.0413,0.31695 0.0138,0.24805 z"
         id="path3406" />
      <path
         d="m 111.81978,158.69897 -0.12402,0.18603 -0.19982,0.11025 -0.24115,0.10335 -0.29628,0.0965 -0.32384,0.0276 -0.29628,0.0689 -0.2067,0.10336 -0.24116,0.0827 -0.19982,0.0551 -0.32383,0.0138 -0.25494,-0.0276 -0.17226,0.0138 -0.15158,0.0551 -0.0689,0.15848 0.0276,0.29627 0.0827,0.15848 0.15848,0.19292 0.29627,0.32384 0.15159,0.1447 0.29628,0.15158 0.15847,0.0758 0.19292,0.0827 h 0.22738 l 0.2136,-0.0551 0.17914,-0.0276 0.19982,-0.0758 0.19981,-0.0413 h 0.12403 l 0.0138,0.0551 -0.0689,0.0758 -0.12402,0.0827 -0.2136,0.11024 -0.22737,0.11713 -0.2136,0.0827 -0.2067,0.0551 -0.31006,-0.0138 -0.31006,-0.0689 -0.25494,-0.13091 -0.29627,-0.19293 -0.26872,-0.22737 -0.18604,-0.12403 -0.1378,-0.13091 -0.11713,-0.16536 -0.0827,-0.062 -0.17225,-0.42031 -0.15158,-0.36518 -0.0965,-0.29627 -0.0345,-0.22738 0.0207,-0.25494 0.0551,-0.26871 0.0551,-0.22738 0.0689,-0.15158 0.0689,-0.17226 0.062,-0.0827 0.12402,-0.11024 0.0965,-0.0138 0.17225,-0.24116 0.19982,-0.17226 0.2067,-0.11024 0.25494,-0.0413 h 0.32384 l 0.26872,-0.0138 0.36518,0.0413 0.29627,0.0827 0.81994,0.40652 0.21359,0.13092 0.19982,0.17914 0.11024,0.1447 0.0689,0.24115 z m -0.7028,2.09461 -0.0827,0.0689 -0.0758,-0.0689 0.0413,-0.0896 h 0.10335 z m -0.60633,-2.50113 -0.11714,-0.12403 -0.17914,-0.0896 -0.19982,-0.0827 -0.22737,-0.0276 h -0.22049 l -0.19981,0.0551 -0.19982,0.0827 -0.17914,0.13092 -0.10336,0.0551 -0.11024,0.12402 0.0413,0.0896 0.0965,-0.0138 0.15848,0.0138 h 0.26871 l 0.22738,0.0551 h 0.23427 l 0.25493,-0.0138 0.22738,-0.0551 0.19982,-0.0551 z"
         id="path3408" />
      <path
         d="m 115.65761,157.99617 -0.0965,0.0276 -0.13091,-0.0138 h -0.12403 l -0.18603,0.0276 -0.22738,0.13091 -0.11024,0.15159 -0.22738,0.0965 -0.0965,0.11713 -0.18603,0.16537 -0.0827,0.17225 -0.0551,0.15848 v 0.2067 l -0.0551,0.15848 -0.062,0.16536 -0.0551,0.18604 -0.0138,0.19981 v 0.44786 l -0.0138,0.19982 -0.0551,0.19981 -0.0138,0.19293 -0.0276,0.2136 v 0.19981 l -0.10335,0.20671 -0.12402,0.11713 -0.18604,0.0551 -0.12402,0.0276 -0.11024,-0.0276 -0.10336,-0.11024 -0.0551,-0.13091 -0.0551,-0.13781 0.0138,-0.15847 -0.0138,-0.22738 v -0.32384 l -0.0138,-0.15158 0.0138,-0.17226 0.0138,-0.22737 v -0.19293 l 0.0276,-0.22737 0.0138,-0.22738 -0.0138,-0.25494 v -0.2067 l -0.0276,-0.17226 -0.0138,-0.15847 -0.11713,-0.19293 -0.0965,-0.15847 -0.0551,-0.16537 -0.0138,-0.18603 0.0276,-0.17226 0.0689,-0.12402 0.11713,-0.0827 0.19292,-0.0689 0.2136,-0.10336 0.18603,0.0276 0.23427,0.10335 0.0276,0.1378 0.10335,0.18604 v 0.28249 l 0.0827,0.0827 0.0827,0.0138 0.11713,-0.0276 0.13781,-0.11025 0.18603,-0.11713 0.2136,-0.0965 0.17914,-0.10336 0.2136,-0.0276 0.22737,-0.0551 h 0.12403 l 0.17225,0.0551 0.0551,0.10336 z"
         id="path3410" />
      <path
         d="m 120.14312,158.69897 -0.12402,0.18603 -0.19982,0.11025 -0.24115,0.10335 -0.29628,0.0965 -0.32384,0.0276 -0.29628,0.0689 -0.2067,0.10336 -0.24116,0.0827 -0.19981,0.0551 -0.32384,0.0138 -0.25494,-0.0276 -0.17225,0.0138 -0.15159,0.0551 -0.0689,0.15848 0.0276,0.29627 0.0827,0.15848 0.15848,0.19292 0.29627,0.32384 0.15159,0.1447 0.29628,0.15158 0.15847,0.0758 0.19293,0.0827 h 0.22737 l 0.2136,-0.0551 0.17914,-0.0276 0.19982,-0.0758 0.19981,-0.0413 h 0.12403 l 0.0138,0.0551 -0.0689,0.0758 -0.12403,0.0827 -0.21359,0.11024 -0.22738,0.11713 -0.2136,0.0827 -0.2067,0.0551 -0.31006,-0.0138 -0.31006,-0.0689 -0.25493,-0.13091 -0.29628,-0.19293 -0.26872,-0.22737 -0.18604,-0.12403 -0.1378,-0.13091 -0.11713,-0.16536 -0.0827,-0.062 -0.17226,-0.42031 -0.15158,-0.36518 -0.0965,-0.29627 -0.0345,-0.22738 0.0207,-0.25494 0.0551,-0.26871 0.0551,-0.22738 0.0689,-0.15158 0.0689,-0.17226 0.062,-0.0827 0.12403,-0.11024 0.0965,-0.0138 0.17225,-0.24116 0.19982,-0.17226 0.2067,-0.11024 0.25494,-0.0413 h 0.32384 l 0.26872,-0.0138 0.36518,0.0413 0.29627,0.0827 0.81994,0.40652 0.21359,0.13092 0.19982,0.17914 0.11024,0.1447 0.0689,0.24115 z m -0.7028,2.09461 -0.0827,0.0689 -0.0758,-0.0689 0.0413,-0.0896 h 0.10335 z m -0.60633,-2.50113 -0.11714,-0.12403 -0.17914,-0.0896 -0.19982,-0.0827 -0.22737,-0.0276 h -0.22049 l -0.19981,0.0551 -0.19982,0.0827 -0.17914,0.13092 -0.10336,0.0551 -0.11024,0.12402 0.0413,0.0896 0.0965,-0.0138 0.15848,0.0138 h 0.26872 l 0.22737,0.0551 h 0.23427 l 0.25494,-0.0138 0.22737,-0.0551 0.19982,-0.0551 z"
         id="path3412" />
      <path
         d="m 125.38656,154.1859 -0.11025,0.0689 -0.11713,-0.0276 0.0344,-0.12403 0.0965,-0.0413 z m 0.69591,0.25493 -0.0276,0.11025 -0.11714,0.13091 -0.0965,0.1378 v 0.13092 l 0.0689,0.12402 0.0689,0.0965 v 0.19982 l -0.0689,0.17225 -0.11024,0.13781 -0.1447,0.11713 -0.17914,0.0138 -0.19982,-0.0138 -0.11713,-0.0758 -0.1378,-0.0965 -0.12403,-0.1447 -0.15847,-0.19292 -0.0689,-0.18604 -0.0276,-0.1378 0.0276,-0.13092 0.0689,-0.15158 0.0965,-0.11713 0.19982,-0.11025 0.17225,-0.0276 0.25494,-0.0276 0.24805,-0.0689 0.17225,-0.0138 0.12402,0.0138 z m 0.0827,2.99034 -0.0413,0.0689 -0.1447,0.0758 -0.0965,0.0827 -0.0413,0.16536 -0.0276,0.22738 -0.0758,0.22738 0.0482,0.19981 -0.062,0.16537 -0.0138,0.22737 -0.0276,0.24116 v 0.24116 l 0.0276,0.29627 -0.0276,0.22049 v 0.24116 l 0.0413,0.18603 0.062,0.17915 -0.062,0.21359 0.0758,0.18604 v 0.32384 l 0.0138,0.12402 0.0551,0.18603 0.0138,0.19982 0.0551,0.1378 v 0.13092 l 0.0551,0.12402 -0.0689,0.12402 -0.0827,0.0344 -0.0551,-0.0344 -0.062,-0.1378 -0.0413,-0.15847 -0.0276,-0.12403 -0.0689,-0.1378 v -0.13091 l -0.0965,-0.2136 v -0.19293 l -0.0276,-0.14469 v -0.19293 l -0.0482,-0.17225 -0.0276,-0.4203 -0.0276,-0.11713 -0.0138,-0.26872 0.0138,-0.17915 -0.0138,-0.19981 v -0.17226 l -0.0689,-0.1378 -0.11713,-0.0689 -0.0827,-0.0896 -0.0827,-0.26872 -0.0276,-0.15159 v -0.55121 l 0.0276,-0.24116 -0.0413,-0.25493 -0.0138,-0.16537 -0.0551,-0.15847 0.0551,-0.16537 0.0827,-0.13091 0.11024,-0.0413 0.15847,-0.0413 0.17226,0.0413 0.12402,0.11024 0.12403,0.10335 h 0.15847 l 0.11024,0.11025 0.10336,0.0689 0.0827,0.0758 z"
         id="path3414" />
      <path
         d="m 130.56798,158.06507 -0.0827,0.1447 -0.17225,-0.0276 -0.0276,-0.13091 0.12402,-0.0413 z m 0.21359,-0.84749 -0.0138,0.10335 -0.10335,0.0689 -0.17915,0.0413 -0.19981,0.0138 -0.2136,0.0551 h -0.19292 l -0.2136,0.0138 -0.26871,0.062 -0.15848,-0.0482 -0.19292,0.062 -0.1447,0.0965 -0.0689,0.11024 v 0.13092 l -0.0138,0.21359 -0.0551,0.11025 v 0.16536 l -0.0413,0.18604 -0.0758,0.26871 -0.0276,0.22738 v 0.88883 l 0.0138,0.2136 -0.0138,0.26183 -0.0551,0.19981 -0.0138,0.15848 -0.0276,0.26871 0.0551,0.47543 0.0551,0.11713 0.0896,0.19292 0.1378,0.10336 0.25494,0.0965 0.15158,-0.0138 h 0.30317 l -0.0758,0.11024 -0.24116,0.0896 h -0.32384 l -0.2067,-0.0344 -0.2136,-0.0689 -0.19981,-0.12402 -0.20671,-0.0689 -0.2136,-0.22738 -0.10335,-0.22738 -0.0138,-0.25493 -0.0551,-0.25494 -0.0551,-0.17914 0.0276,-0.26872 v -0.2825 l -0.0276,-0.21359 0.0413,-0.19982 -0.0689,-0.26872 -0.0276,-0.31006 -0.0138,-0.24804 0.0138,-0.22738 0.0551,-0.25494 v -0.88883 l -0.18604,0.0276 -0.17914,0.0551 -0.19982,0.0689 -0.1378,0.10336 -0.13091,0.0276 -0.0965,-0.0138 -0.0551,-0.0689 v -0.0758 l 0.0276,-0.12402 0.0827,-0.0827 0.1447,-0.0758 0.15158,0.0138 0.18604,-0.0413 0.17914,-0.0276 0.2136,-0.0138 0.0276,-0.12402 -0.0276,-0.19981 0.0276,-0.22738 0.0138,-0.29628 -0.0138,-0.19292 -0.0276,-0.17226 -0.0551,-0.17225 v -0.15159 l 0.0827,-0.17225 0.19981,-0.0965 0.13781,-0.1447 0.21359,-0.0827 0.17226,0.0138 0.15158,0.0689 0.15848,0.10335 0.0551,0.0965 0.11024,0.13091 0.0413,0.11024 0.10336,0.17226 0.0276,0.0827 -0.0138,0.19982 -0.0551,0.15158 -0.0207,0.17225 -0.0689,0.13781 0.0276,0.13091 0.11714,0.0827 0.19292,0.0413 0.18604,-0.0276 h 0.52365 l 0.15158,0.0276 0.26872,0.0138 0.19982,0.0551 0.0965,0.0138 z"
         id="path3416" />
      <path
         d="m 134.77099,157.26581 -0.10335,0.0551 -0.11025,-0.0896 0.0827,-0.11024 0.13092,0.0276 z m 3.12814,3.2315 -0.0276,0.19292 -0.0689,0.2136 -0.0965,0.18603 -0.1447,0.13781 -0.17914,0.15847 -0.15848,0.0551 -0.17225,0.0965 -0.15158,0.0689 -0.2136,0.0138 h -0.43408 l -0.1447,-0.11025 -0.19292,-0.0138 -0.26872,-0.0689 -0.22737,-0.0896 -0.13092,-0.11024 -0.1378,-0.0551 -0.0827,-0.15848 -0.0758,-0.15158 v -0.19982 l 0.0758,-0.19981 0.0551,-0.12403 0.0965,-0.1378 0.11713,-0.0207 0.0551,0.11713 -0.0551,0.15159 -0.0138,0.17225 v 0.19982 l 0.0965,0.15158 0.18603,0.0689 0.19293,0.0758 0.17225,0.0689 0.2825,0.0276 0.17914,0.0827 0.22738,-0.0551 0.18603,-0.0551 0.13781,-0.0827 0.18603,-0.13091 0.13781,-0.11024 0.10335,-0.10336 0.0138,-0.19292 v -0.22738 l -0.0689,-0.17225 -0.1447,-0.17915 -0.19981,-0.0689 -0.23427,-0.11713 -0.0896,-0.0827 -0.25494,-0.13092 -0.17914,-0.11024 -0.19982,-0.0827 -0.12402,-0.0689 -0.18604,-0.0482 -0.12402,-0.0138 -0.17225,-0.0965 -0.15848,-0.0965 -0.0965,-0.17226 -0.0965,-0.1378 -0.0689,-0.18603 -0.0138,-0.2136 0.0551,-0.19293 0.0138,-0.17225 0.0827,-0.19982 0.11024,-0.16536 0.11713,-0.15847 0.0276,-0.0827 0.0965,-0.12402 h 0.13091 l 0.0413,-0.14469 0.15159,-0.0413 0.15847,-0.0827 0.18604,-0.0138 0.2067,-0.0344 0.26872,-0.0827 0.24116,-0.0551 h 0.19981 l 0.19293,0.0551 0.14469,0.0827 0.16536,0.13091 0.10336,0.0689 0.11024,0.15847 0.0413,0.0965 v 0.19982 l -0.0965,0.15158 -0.0965,0.10336 -0.17226,0.0689 -0.2825,0.0276 -0.22737,-0.0276 -0.19293,-0.0138 -0.21359,0.0413 -0.19982,0.0965 -0.1378,0.10335 -0.13092,0.13781 -0.0551,0.19981 0.0827,0.15159 0.13092,0.11713 0.17914,0.0413 0.13092,0.0965 0.12402,0.11025 0.14469,0.11713 0.12403,0.1378 0.13091,0.0276 0.11024,0.062 0.0965,0.12402 0.13091,0.0551 0.12402,0.0758 0.1447,0.12403 0.11024,0.1378 0.0138,0.19982 0.0413,0.22737 z"
         id="path3418" />
      <path
         d="m 142.10903,158.06507 -0.0827,0.1447 -0.17225,-0.0276 -0.0276,-0.13091 0.12402,-0.0413 z m 0.2136,-0.84749 -0.0138,0.10335 -0.10335,0.0689 -0.17915,0.0413 -0.19981,0.0138 -0.2136,0.0551 H 141.42 l -0.2136,0.0138 -0.26872,0.062 -0.15847,-0.0482 -0.19293,0.062 -0.14469,0.0965 -0.0689,0.11024 v 0.13092 l -0.0138,0.21359 -0.0551,0.11025 v 0.16536 l -0.0413,0.18604 -0.0758,0.26871 -0.0276,0.22738 v 0.88883 l 0.0138,0.2136 -0.0138,0.26183 -0.0551,0.19981 -0.0138,0.15848 -0.0276,0.26871 0.0551,0.47543 0.0551,0.11713 0.0896,0.19292 0.13781,0.10336 0.25494,0.0965 0.15158,-0.0138 h 0.30317 l -0.0758,0.11024 -0.24116,0.0896 h -0.32384 l -0.20671,-0.0344 -0.21359,-0.0689 -0.19982,-0.12402 -0.2067,-0.0689 -0.2136,-0.22738 -0.10335,-0.22738 -0.0138,-0.25493 -0.0551,-0.25494 -0.0551,-0.17914 0.0276,-0.26872 v -0.2825 l -0.0276,-0.21359 0.0413,-0.19982 -0.0689,-0.26872 -0.0276,-0.31006 -0.0138,-0.24804 0.0138,-0.22738 0.0551,-0.25494 v -0.88883 l -0.18604,0.0276 -0.17914,0.0551 -0.19982,0.0689 -0.1378,0.10336 -0.13092,0.0276 -0.0965,-0.0138 -0.0551,-0.0689 v -0.0758 l 0.0276,-0.12402 0.0827,-0.0827 0.1447,-0.0758 0.15158,0.0138 0.18604,-0.0413 0.17914,-0.0276 0.2136,-0.0138 0.0276,-0.12402 -0.0276,-0.19981 0.0276,-0.22738 0.0138,-0.29628 -0.0138,-0.19292 -0.0276,-0.17226 -0.0551,-0.17225 v -0.15159 l 0.0827,-0.17225 0.19981,-0.0965 0.13781,-0.1447 0.21359,-0.0827 0.17226,0.0138 0.15158,0.0689 0.15847,0.10335 0.0551,0.0965 0.11024,0.13091 0.0413,0.11024 0.10335,0.17226 0.0276,0.0827 -0.0138,0.19982 -0.0551,0.15158 -0.0207,0.17225 -0.0689,0.13781 0.0276,0.13091 0.11713,0.0827 0.19293,0.0413 0.18603,-0.0276 h 0.52366 l 0.15158,0.0276 0.26872,0.0138 0.19981,0.0551 0.0965,0.0138 z"
         id="path3420" />
      <path
         d="m 145.94687,159.98743 -0.0827,0.0551 -0.0758,-0.0276 v -0.0827 l 0.13091,-0.062 z m 0.0413,1.22646 -0.0138,0.0965 -0.0965,0.10335 h -0.10335 l -0.11025,-0.11713 -0.0551,-0.17915 -0.0896,-0.14469 -0.0551,-0.19982 -0.0551,-0.0551 -0.0827,0.0413 -0.11713,0.0758 -0.12402,0.15158 -0.19982,0.11713 -0.12402,0.12403 -0.2136,0.11024 -0.24115,0.0896 -0.20671,0.0689 -0.18603,0.0551 -0.13781,0.0551 -0.14469,-0.0413 -0.19982,-0.0276 -0.23426,-0.0965 -0.2136,-0.13091 -0.13091,-0.16537 -0.0965,-0.18603 -0.0138,-0.29628 v -0.19981 l 0.0413,-0.22049 0.13091,-0.22738 0.12402,-0.21359 0.17226,-0.15159 0.17914,-0.13091 0.24116,-0.0413 0.21359,-0.0276 0.24116,-0.0551 0.20671,-0.13092 0.26871,-0.1378 0.13092,-0.0551 0.1378,-0.0413 0.0551,-0.1447 -0.11024,-0.19981 -0.13091,-0.17915 -0.27561,-0.25493 -0.2825,-0.0827 -0.22737,-0.0138 -0.0827,0.0138 h -0.14469 l -0.17226,0.0827 -0.15158,0.0965 -0.18603,0.0276 h -0.20671 l -0.24116,0.062 h -0.21359 l -0.17226,-0.0896 -0.12402,-0.12402 -0.0138,-0.17226 0.0413,-0.15158 0.14469,-0.17226 0.15159,-0.19981 0.18603,-0.15159 0.20671,-0.11024 0.22737,-0.18604 0.2136,-0.0965 0.39274,-0.0758 0.33762,-0.0276 0.24116,0.0689 0.19981,0.10335 0.2136,0.0689 0.24115,0.15847 0.12403,0.12402 0.12402,0.19982 0.0896,0.25494 0.0689,0.24804 0.0965,0.33073 0.0896,0.24805 0.0138,0.21359 -0.0138,0.26872 0.0689,0.31006 0.0413,0.32384 0.12403,0.56499 0.0758,0.2136 0.0689,0.19292 0.0551,0.24116 z m -0.59255,-0.0413 -0.0551,0.0413 -0.11714,-0.0413 0.0344,-0.0827 0.0827,-0.0482 z m -0.36518,-1.42627 -0.0551,-0.0827 -0.19982,-0.0551 -0.17225,0.0138 -0.15159,0.0689 -0.17225,0.0551 -0.17915,0.0965 -0.17225,0.0276 -0.15159,0.0758 -0.13091,0.0965 -0.0827,0.12403 -0.10336,0.15847 -0.0276,0.13781 -0.0551,0.13091 v 0.16536 l 0.0689,0.1447 0.18604,0.0551 h 0.19981 l 0.22049,-0.0551 0.10335,-0.11025 0.13781,-0.0344 0.32384,-0.22048 0.15847,-0.10335 0.11024,-0.17915 0.11714,-0.14469 0.0138,-0.19293 z"
         id="path3422" />
      <path
         d="m 149.92939,157.99617 -0.0965,0.0276 -0.13091,-0.0138 h -0.12403 l -0.18603,0.0276 -0.22738,0.13091 -0.11024,0.15159 -0.22738,0.0965 -0.0965,0.11713 -0.18603,0.16537 -0.0827,0.17225 -0.0551,0.15848 v 0.2067 l -0.0551,0.15848 -0.062,0.16536 -0.0551,0.18604 -0.0138,0.19981 v 0.44786 l -0.0138,0.19982 -0.0551,0.19981 -0.0138,0.19293 -0.0276,0.2136 v 0.19981 l -0.10336,0.20671 -0.12402,0.11713 -0.18604,0.0551 -0.12402,0.0276 -0.11024,-0.0276 -0.10335,-0.11024 -0.0551,-0.13091 -0.0551,-0.13781 0.0138,-0.15847 -0.0138,-0.22738 v -0.32384 l -0.0138,-0.15158 0.0138,-0.17226 0.0138,-0.22737 v -0.19293 l 0.0276,-0.22737 0.0138,-0.22738 -0.0138,-0.25494 v -0.2067 l -0.0276,-0.17226 -0.0138,-0.15847 -0.11713,-0.19293 -0.0965,-0.15847 -0.0551,-0.16537 -0.0138,-0.18603 0.0276,-0.17226 0.0689,-0.12402 0.11713,-0.0827 0.19293,-0.0689 0.21359,-0.10336 0.18604,0.0276 0.23426,0.10335 0.0276,0.1378 0.10336,0.18604 v 0.28249 l 0.0827,0.0827 0.0827,0.0138 0.11713,-0.0276 0.13781,-0.11025 0.18603,-0.11713 0.2136,-0.0965 0.17914,-0.10336 0.2136,-0.0276 0.22737,-0.0551 h 0.12403 l 0.17225,0.0551 0.0551,0.10336 z"
         id="path3424" />
      <path
         d="m 153.72589,158.06507 -0.0827,0.1447 -0.17225,-0.0276 -0.0276,-0.13091 0.12402,-0.0413 z m 0.2136,-0.84749 -0.0138,0.10335 -0.10335,0.0689 -0.17915,0.0413 -0.19981,0.0138 -0.2136,0.0551 h -0.19292 l -0.2136,0.0138 -0.26872,0.062 -0.15847,-0.0482 -0.19293,0.062 -0.14469,0.0965 -0.0689,0.11024 v 0.13092 l -0.0138,0.21359 -0.0551,0.11025 v 0.16536 l -0.0413,0.18604 -0.0758,0.26871 -0.0276,0.22738 v 0.88883 l 0.0138,0.2136 -0.0138,0.26183 -0.0551,0.19981 -0.0138,0.15848 -0.0276,0.26871 0.0551,0.47543 0.0551,0.11713 0.0896,0.19292 0.13781,0.10336 0.25493,0.0965 0.15159,-0.0138 h 0.30317 l -0.0758,0.11024 -0.24115,0.0896 h -0.32384 l -0.20671,-0.0344 -0.21359,-0.0689 -0.19982,-0.12402 -0.2067,-0.0689 -0.2136,-0.22738 -0.10335,-0.22738 -0.0138,-0.25493 -0.0551,-0.25494 -0.0551,-0.17914 0.0276,-0.26872 v -0.2825 l -0.0276,-0.21359 0.0413,-0.19982 -0.0689,-0.26872 -0.0276,-0.31006 -0.0138,-0.24804 0.0138,-0.22738 0.0551,-0.25494 v -0.88883 l -0.18604,0.0276 -0.17914,0.0551 -0.19982,0.0689 -0.1378,0.10336 -0.13092,0.0276 -0.0965,-0.0138 -0.0551,-0.0689 v -0.0758 l 0.0276,-0.12402 0.0827,-0.0827 0.1447,-0.0758 0.15158,0.0138 0.18603,-0.0413 0.17915,-0.0276 0.2136,-0.0138 0.0276,-0.12402 -0.0276,-0.19981 0.0276,-0.22738 0.0138,-0.29628 -0.0138,-0.19292 -0.0276,-0.17226 -0.0551,-0.17225 v -0.15159 l 0.0827,-0.17225 0.19981,-0.0965 0.13781,-0.1447 0.21359,-0.0827 0.17226,0.0138 0.15158,0.0689 0.15847,0.10335 0.0551,0.0965 0.11024,0.13091 0.0413,0.11024 0.10335,0.17226 0.0276,0.0827 -0.0138,0.19982 -0.0551,0.15158 -0.0207,0.17225 -0.0689,0.13781 0.0276,0.13091 0.11713,0.0827 0.19293,0.0413 0.18603,-0.0276 h 0.52366 l 0.15158,0.0276 0.26872,0.0138 0.19981,0.0551 0.0965,0.0138 z"
         id="path3426" />
      <path
         d="m 153.98083,157.26581 -0.10336,0.0551 -0.11024,-0.0896 0.0827,-0.11024 0.13092,0.0276 z m 3.12814,3.2315 -0.0276,0.19292 -0.0689,0.2136 -0.0965,0.18603 -0.1447,0.13781 -0.17914,0.15847 -0.15848,0.0551 -0.17225,0.0965 -0.15159,0.0689 -0.21359,0.0138 h -0.43408 l -0.1447,-0.11025 -0.19292,-0.0138 -0.26872,-0.0689 -0.22738,-0.0896 -0.13091,-0.11024 -0.1378,-0.0551 -0.0827,-0.15848 -0.0758,-0.15158 v -0.19982 l 0.0758,-0.19981 0.0551,-0.12403 0.0965,-0.1378 0.11713,-0.0207 0.0551,0.11713 -0.0551,0.15159 -0.0138,0.17225 v 0.19982 l 0.0965,0.15158 0.18604,0.0689 0.19292,0.0758 0.17226,0.0689 0.2825,0.0276 0.17914,0.0827 0.22738,-0.0551 0.18603,-0.0551 0.13781,-0.0827 0.18603,-0.13091 0.13781,-0.11024 0.10335,-0.10336 0.0138,-0.19292 v -0.22738 l -0.0689,-0.17225 -0.1447,-0.17915 -0.19981,-0.0689 -0.23427,-0.11713 -0.0896,-0.0827 -0.25494,-0.13092 -0.17914,-0.11024 -0.19982,-0.0827 -0.12402,-0.0689 -0.18604,-0.0482 -0.12402,-0.0138 -0.17226,-0.0965 -0.15847,-0.0965 -0.0965,-0.17226 -0.0965,-0.1378 -0.0689,-0.18603 -0.0138,-0.2136 0.0551,-0.19293 0.0138,-0.17225 0.0827,-0.19982 0.11024,-0.16536 0.11713,-0.15847 0.0276,-0.0827 0.0965,-0.12402 h 0.13091 l 0.0413,-0.14469 0.15159,-0.0413 0.15847,-0.0827 0.18603,-0.0138 0.20671,-0.0344 0.26872,-0.0827 0.24115,-0.0551 h 0.19982 l 0.19292,0.0551 0.1447,0.0827 0.16536,0.13091 0.10336,0.0689 0.11024,0.15847 0.0413,0.0965 v 0.19982 l -0.0965,0.15158 -0.0965,0.10336 -0.17225,0.0689 -0.2825,0.0276 -0.22737,-0.0276 -0.19293,-0.0138 -0.21359,0.0413 -0.19982,0.0965 -0.1378,0.10335 -0.13092,0.13781 -0.0551,0.19981 0.0827,0.15159 0.13092,0.11713 0.17914,0.0413 0.13092,0.0965 0.12402,0.11025 0.14469,0.11713 0.12403,0.1378 0.13091,0.0276 0.11024,0.062 0.0965,0.12402 0.13091,0.0551 0.12402,0.0758 0.1447,0.12403 0.11024,0.1378 0.0138,0.19982 0.0413,0.22737 z"
         id="path3428" />
      <path
         d="m 160.1062,161.24145 -0.0276,0.14469 -0.25494,0.22049 -0.0689,0.13091 -0.10335,0.1378 -0.0551,0.0551 -0.0965,0.14469 -0.26871,0.19981 -0.15848,0.0138 -0.19292,-0.0276 -0.11714,-0.10335 -0.0689,-0.19292 -0.0413,-0.0896 -0.17225,-0.1378 -0.0413,-0.0896 v -0.0965 l -0.0413,-0.11025 -0.0138,-0.14469 0.17226,-0.15159 0.32384,-0.18603 0.29628,-0.1378 h 0.37896 l 0.16536,0.0689 0.062,0.0965 0.15159,0.0276 0.14469,0.0896 z m -0.38585,1.10243 -0.0689,0.0551 -0.0827,-0.11024 0.0689,-0.0482 0.0827,0.0344 z"
         id="path3430" />
      <path
         d="m 163.77867,152.95944 -0.0344,0.0689 v 0.18603 l 0.0138,0.29628 -0.0138,0.26872 v 0.33762 l -0.0413,0.24115 -0.0413,0.26872 -0.0276,0.22048 -0.0276,0.26872 0.0138,0.2825 -0.0138,0.26872 0.0276,0.26871 0.0276,0.15848 v 0.24805 l -0.0276,0.0896 -0.0138,0.0551 -0.0276,0.0551 -0.0551,0.0551 -0.062,0.0413 -0.0689,-0.0413 -0.0689,-0.0551 -0.0276,-0.19981 -0.0413,-0.16537 -0.0551,-0.18603 -0.0758,-0.19293 -0.0276,-0.18603 0.0276,-0.11025 -0.0551,-0.22737 -0.0276,-0.22738 -0.0413,-0.29628 -0.0551,-0.3514 -0.0758,-0.33762 -0.0689,-0.25493 -0.0138,-0.1447 -0.0276,-0.1378 -0.0827,-0.13091 -0.0276,-0.0276 -0.0758,-0.0138 -0.0551,0.0138 -0.0276,0.0413 v 0.18603 l -0.0138,0.0827 -0.0413,0.19982 -0.0138,0.22737 -0.0413,0.24116 -0.0276,0.22049 -0.0413,0.37207 -0.0344,0.28249 -0.0138,0.31006 v 0.26872 l 0.0138,0.22049 v 0.21359 l -0.0276,0.19982 -0.0551,0.0413 -0.0965,0.0138 -0.0965,-0.0413 -0.1447,-0.39963 -0.0276,-0.32384 v -0.26872 l -0.0413,-0.26872 -0.0138,-0.23426 0.0276,-0.2825 -0.0276,-0.24116 0.0276,-0.39274 0.0276,-0.29628 v -0.3445 l -0.0276,-0.29628 -0.0551,-0.23427 -0.0482,-0.24116 -0.0965,-0.15847 -0.0276,-0.17914 v -0.24116 l 0.0551,-0.15848 0.0896,-0.15158 0.17914,-0.17225 0.15848,-0.0138 0.2067,0.0689 0.17226,0.0896 0.11024,0.12402 0.0276,0.0827 0.13092,0.062 h 0.4203 l 0.18603,0.0689 0.17226,0.0551 0.0965,0.1378 0.1378,0.19982 0.0482,0.26872 z m -2.19108,2.68029 -0.0965,0.0551 -0.0758,-0.0689 0.0758,-0.0551 h 0.0965 z m 1.70877,2.30132 -0.0689,0.0551 -0.11713,-0.0413 -0.0138,-0.0551 0.11713,-0.10336 0.0827,0.062 z"
         id="path3432" />
    </g>
  </g>
</svg>
