<?xml version="1.0" encoding="UTF-8" standalone="no"?>
<!-- Created with Inkscape (http://www.inkscape.org/) -->

<svg
   width="0.29463303in"
   height="0.27502868in"
   viewBox="0 0 6.8033445 6.3506622"
   version="1.1"
   id="svg10081"
   xmlns:inkscape="http://www.inkscape.org/namespaces/inkscape"
   xmlns:sodipodi="http://sodipodi.sourceforge.net/DTD/sodipodi-0.dtd"
   xmlns="http://www.w3.org/2000/svg"
   xmlns:svg="http://www.w3.org/2000/svg">
  <sodipodi:namedview
     id="namedview10083"
     pagecolor="#ffffff"
     bordercolor="#000000"
     borderopacity="0.25"
     inkscape:showpageshadow="2"
     inkscape:pageopacity="0.0"
     inkscape:pagecheckerboard="0"
     inkscape:deskcolor="#d1d1d1"
     inkscape:document-units="mm"
     showgrid="false" />
  <defs
     id="defs10078" />
  <g
     inkscape:label="Layer 1"
     inkscape:groupmode="layer"
     id="layer1"
     transform="translate(-199.18172,-66.360382)">
    <path
       sodipodi:type="spiral"
       style="fill:#ffffff;fill-opacity:1;fill-rule:evenodd;stroke:#ffffff;stroke-width:0.454545;stroke-dasharray:none;stroke-opacity:1"
       id="path14812-9"
       sodipodi:cx="72.818626"
       sodipodi:cy="36.409313"
       sodipodi:expansion="1"
       sodipodi:revolution="3.0120833"
       sodipodi:radius="3.6512134"
       sodipodi:argument="-18.058432"
       sodipodi:t0="0"
       d="m 72.818626,36.409313 c 0.128188,0.129664 -0.111541,0.236766 -0.21551,0.213056 -0.281749,-0.06425 -0.325031,-0.425856 -0.210602,-0.644076 0.204686,-0.390344 0.730652,-0.433199 1.072643,-0.208148 0.501886,0.33027 0.5446,1.039592 0.205694,1.501209 -0.451708,0.615264 -1.350004,0.657381 -1.929776,0.20324 -0.729583,-0.571491 -0.770876,-1.661119 -0.200786,-2.358342 0.690457,-0.84443 1.97263,-0.884786 2.786909,-0.198332 0.959599,0.808962 0.998954,2.284387 0.195878,3.215475 -0.927183,1.074978 -2.596309,1.113295 -3.644042,0.193424 -1.1905,-1.045217 -1.227758,-2.908347 -0.190969,-4.072608 1.16312,-1.306126 3.220468,-1.342309 4.501174,-0.188516 1.421827,1.280929 1.456925,3.532654 0.186062,4.929741 -0.06214,0.06831 -0.126886,0.134251 -0.194041,0.197638"
       transform="translate(129.46347,33.35269)" />
  </g>
</svg>
