<?xml version="1.0" encoding="UTF-8" standalone="no"?>
<!-- Created with Inkscape (http://www.inkscape.org/) -->

<svg
   width="3.3839309in"
   height="0.536439in"
   viewBox="0 0 78.138041 12.386864"
   version="1.1"
   id="svg10081"
   xmlns:inkscape="http://www.inkscape.org/namespaces/inkscape"
   xmlns:sodipodi="http://sodipodi.sourceforge.net/DTD/sodipodi-0.dtd"
   xmlns="http://www.w3.org/2000/svg"
   xmlns:svg="http://www.w3.org/2000/svg">
  <sodipodi:namedview
     id="namedview10083"
     pagecolor="#ffffff"
     bordercolor="#000000"
     borderopacity="0.25"
     inkscape:showpageshadow="2"
     inkscape:pageopacity="0.0"
     inkscape:pagecheckerboard="0"
     inkscape:deskcolor="#d1d1d1"
     inkscape:document-units="mm"
     showgrid="false" />
  <defs
     id="defs10078" />
  <g
     inkscape:label="Layer 1"
     inkscape:groupmode="layer"
     id="layer1"
     transform="translate(-51.266396,-30.441887)">
    <g
       aria-label="Rig vert  S sa"
       transform="matrix(0.2405303,0,0,0.2405303,13.261671,22.906522)"
       id="text14754"
       style="font-size:53.3333px;font-family:'Bauhaus 93';-inkscape-font-specification:'Bauhaus 93, Normal';letter-spacing:0px;word-spacing:10px;white-space:pre;fill:#ffffff;fill-opacity:1;fill-rule:evenodd;stroke:#ffffff;stroke-width:1.88976;stroke-linecap:round;stroke-linejoin:bevel">
      <g
         id="path15677"
         style="fill:#ffffff;fill-opacity:1">
        <path
           style="color:#000000;-inkscape-font-specification:'Bauhaus 93, Normal';fill:#ffffff;fill-opacity:1;fill-rule:nonzero;stroke:none;stroke-linecap:butt;stroke-linejoin:miter;-inkscape-stroke:none"
           d="M 169.52148,43.834924 V 69.824491 H 158.94857 V 34.277638 h 13.5677 q 6.19791,0 9.60937,3.072914 3.80208,3.437498 3.80208,8.723954 0,5.390621 -4.71354,9.088536 l 6.09374,14.661449 h -11.09374 l -5.1302,-11.458326 v -9.14062 h 0.83333 q 3.33333,0 3.33333,-2.864581 0,-2.52604 -3.85417,-2.52604 z"
           id="path15700" />
        <path
           style="color:#000000;-inkscape-font-specification:'Bauhaus 93, Normal';fill:#ffffff;fill-opacity:1;fill-rule:nonzero;stroke:none;stroke-linecap:butt;stroke-linejoin:miter;-inkscape-stroke:none"
           d="m 158.94922,33.332031 -0.94531,0.945313 v 35.546875 l 0.94531,0.945312 h 10.57226 l 0.94532,-0.945312 V 59.300781 l 4.88476,10.910156 0.86328,0.558594 h 11.09375 l 0.8711,-1.308594 -5.84571,-14.066406 c 2.93464,-2.529693 4.53907,-5.688028 4.53907,-9.320312 0,-3.750823 -1.39983,-6.970566 -4.11328,-9.423828 l -0.002,-0.002 c -2.48573,-2.239051 -5.95409,-3.316406 -10.24219,-3.316406 z m 0.94336,1.890625 h 12.62304 c 3.97578,0 6.91564,0.971916 8.97852,2.830078 2.3545,2.129695 3.48828,4.724722 3.48828,8.021485 0,3.318344 -1.38463,6.018055 -4.35156,8.345703 l -0.28906,1.105469 5.55078,13.353515 h -9.06641 L 172.0293,58.164062 V 50.15625 c 1.19568,-0.01661 2.23768,-0.271216 3.0039,-0.929688 0.79171,-0.680374 1.16211,-1.727125 1.16211,-2.865234 0,-1.082291 -0.50672,-2.106233 -1.39062,-2.685547 -0.88391,-0.579314 -2.02027,-0.785156 -3.40821,-0.785156 h -1.875 l -0.94531,0.943359 v 25.044922 h -8.68359 z m 10.57422,9.556641 h 0.92968 c 1.18151,0 1.97223,0.213864 2.37305,0.476562 0.40082,0.262699 0.53711,0.503736 0.53711,1.105469 0,0.77161 -0.18646,1.157156 -0.50586,1.431641 -0.3194,0.274484 -0.90704,0.488281 -1.88281,0.488281 h -0.83399 l -0.61718,0.615234 z"
           id="path15702" />
      </g>
      <g
         id="path15679"
         style="fill:#ffffff;fill-opacity:1">
        <path
           style="color:#000000;-inkscape-font-specification:'Bauhaus 93, Normal';fill:#ffffff;fill-opacity:1;fill-rule:nonzero;stroke:none;stroke-linecap:butt;stroke-linejoin:miter;-inkscape-stroke:none"
           d="m 199.86,43.860965 v 25.963526 h -9.73958 V 43.860965 Z M 195.01625,32.27243 q 1.97917,0 3.41146,1.40625 1.45833,1.380207 1.45833,3.281248 0,2.031248 -1.38021,3.333331 -1.35416,1.302083 -3.48958,1.302083 -2.13541,0 -3.51562,-1.302083 -1.35417,-1.302083 -1.35417,-3.333331 0,-1.901041 1.43229,-3.281248 1.45834,-1.40625 3.4375,-1.40625 z"
           id="path15706" />
        <path
           style="color:#000000;-inkscape-font-specification:'Bauhaus 93, Normal';fill:#ffffff;fill-opacity:1;fill-rule:nonzero;stroke:none;stroke-linecap:butt;stroke-linejoin:miter;-inkscape-stroke:none"
           d="m 195.01562,31.328125 c -1.54322,0 -2.96582,0.58417 -4.09179,1.669922 -1.11094,1.070544 -1.72266,2.45628 -1.72266,3.960937 0,1.564138 0.5648,2.977427 1.64453,4.015625 l 0.006,0.0059 c 1.09707,1.034966 2.54841,1.560547 4.16406,1.560547 1.61407,0 3.05933,-0.526443 4.14063,-1.564454 1.09643,-1.036078 1.67383,-2.450943 1.67383,-4.017578 0,-1.505675 -0.62125,-2.890913 -1.7461,-3.958984 -1.10934,-1.086653 -2.52754,-1.671875 -4.06836,-1.671875 z m 0,1.888672 c 1.09566,0 1.9504,0.351649 2.75,1.136719 l 0.0117,0.01172 c 0.81492,0.771265 1.16407,1.568003 1.16407,2.59375 0,1.140153 -0.34224,1.946727 -1.08399,2.646485 l -0.006,0.0059 c -0.7239,0.696063 -1.60437,1.039063 -2.83594,1.039063 -1.2275,0 -2.11762,-0.342577 -2.85937,-1.039063 l -0.002,-0.002 c -0.72439,-0.697454 -1.0625,-1.507303 -1.0625,-2.650391 0,-1.030061 0.3438,-1.829879 1.14257,-2.599609 0.81849,-0.789246 1.6856,-1.142578 2.78125,-1.142578 z m -4.89453,9.699219 -0.94531,0.945312 v 25.962891 l 0.94531,0.945312 h 9.73828 l 0.94532,-0.945312 V 43.861328 l -0.94532,-0.945312 z m 0.94336,1.890625 h 7.85157 v 24.072265 h -7.85157 z"
           id="path15708" />
      </g>
      <g
         id="path15681"
         style="fill:#ffffff;fill-opacity:1">
        <path
           style="color:#000000;-inkscape-font-specification:'Bauhaus 93, Normal';fill:#ffffff;fill-opacity:1;fill-rule:nonzero;stroke:none;stroke-linecap:butt;stroke-linejoin:miter;-inkscape-stroke:none"
           d="m 219.44332,59.121373 v 8.932286 q -2.10937,0.78125 -4.03646,0.78125 -4.71353,0 -7.99478,-3.567707 -3.25521,-3.567706 -3.25521,-8.723953 0,-5.572913 3.93229,-9.401036 3.93229,-3.828122 9.66145,-3.828122 3.04688,0 5.83333,1.223957 2.78646,1.223958 4.375,3.281248 2.65625,3.411456 2.65625,9.895828 v 8.541661 q 0,6.953121 -3.95833,11.276035 -3.93229,4.348956 -10.26041,4.348956 -1.92709,0 -4.86979,-0.963541 v -8.854162 q 1.90104,1.041666 3.85416,1.041666 2.63021,0 4.0625,-1.74479 1.43229,-1.718749 1.43229,-4.947914 v -9.765619 q 0,-4.088539 -3.30729,-4.088539 -1.40625,0 -2.47396,1.093749 -1.04166,1.067708 -1.04166,2.473957 0,1.484374 0.98958,2.473957 1.01563,0.989582 2.5,0.989582 0.98958,0 1.90104,-0.468749 z"
           id="path15712" />
        <path
           style="color:#000000;-inkscape-font-specification:'Bauhaus 93, Normal';fill:#ffffff;fill-opacity:1;fill-rule:nonzero;stroke:none;stroke-linecap:butt;stroke-linejoin:miter;-inkscape-stroke:none"
           d="m 217.75,42.369141 c -4.02989,0 -7.53445,1.383635 -10.32031,4.095703 -2.78574,2.71194 -4.2168,6.140615 -4.2168,10.078125 0,3.636333 1.17905,6.815432 3.50195,9.361328 l 0.002,0.002 c 2.3401,2.544394 5.3087,3.873047 8.68945,3.873047 1.3619,0 2.77079,-0.295372 4.20898,-0.810547 -0.20738,0.72865 -0.51036,1.321427 -0.89843,1.787109 l -0.004,0.0059 c -0.77489,0.943952 -1.78749,1.398437 -3.33203,1.398437 -1.1341,0 -2.25262,-0.294913 -3.40039,-0.923828 l -1.39844,0.828125 v 8.853516 l 0.65039,0.898437 c 2.01977,0.661341 3.72186,1.009766 5.16406,1.009766 4.4352,0 8.17031,-1.573826 10.96094,-4.660156 2.80608,-3.067379 4.20313,-7.098185 4.20313,-11.910157 v -8.541015 c 0,-4.449934 -0.90621,-7.969589 -2.85352,-10.472657 -1.16696,-1.511311 -2.76661,-2.700583 -4.74219,-3.568359 -1.97373,-0.866969 -4.05707,-1.304687 -6.21484,-1.304687 z m 0,1.890625 c 1.90473,0 3.7116,0.377606 5.45312,1.142578 1.7397,0.764166 3.05673,1.762401 4.00782,2.99414 l 0.002,0.0039 c 1.59255,2.045326 2.45703,5.120562 2.45703,9.314453 v 8.541015 c 0,4.456107 -1.24049,7.942821 -3.70898,10.638672 l -0.006,0.0039 c -2.45242,2.712272 -5.55631,4.039063 -9.5586,4.039063 -0.96701,0 -2.38116,-0.33221 -3.92578,-0.787109 v -6.689454 c 0.95528,0.347159 1.92423,0.589844 2.91016,0.589844 1.96137,0 3.65619,-0.706891 4.79101,-2.08789 1.13925,-1.369139 1.64844,-3.260138 1.64844,-5.550782 v -9.765625 c 0,-1.490233 -0.29218,-2.739265 -1.03711,-3.660156 -0.74492,-0.920891 -1.91773,-1.373047 -3.21484,-1.373047 -1.18247,0 -2.29374,0.501366 -3.15039,1.378906 -0.83924,0.860222 -1.31055,1.963966 -1.31055,3.134766 0,1.199554 0.44083,2.315824 1.26758,3.142578 l 0.008,0.0078 c 0.84188,0.820287 1.96061,1.257812 3.16016,1.257812 0.33122,0 0.63234,-0.169494 0.95508,-0.234375 v 6.988281 c -1.07543,0.336954 -2.12735,0.601563 -3.0918,0.601563 -2.90395,0 -5.26393,-1.051128 -7.29883,-3.263672 -2.01532,-2.210354 -3.00586,-4.846966 -3.00586,-8.083984 0,-3.493034 1.18917,-6.332391 3.64649,-8.72461 2.45718,-2.392089 5.39296,-3.558593 9.00195,-3.558593 z m -0.18164,9.24414 c 0.90775,0 1.38859,0.229922 1.74609,0.671875 0.35751,0.441954 0.61719,1.235247 0.61719,2.470703 v 2.195313 l -0.91992,-0.560547 c -0.48396,0.248892 -0.95822,0.363281 -1.46875,0.363281 -0.77618,0 -1.32362,-0.222261 -1.83399,-0.716797 -0.49036,-0.491767 -0.71093,-1.02292 -0.71093,-1.800781 0,-0.704196 0.22379,-1.251066 0.77343,-1.814453 0.5664,-0.579629 1.10497,-0.808594 1.79688,-0.808594 z"
           id="path15714" />
      </g>
      <g
         id="path15683"
         style="fill:#ffffff;fill-opacity:1">
        <path
           style="color:#000000;-inkscape-font-specification:'Bauhaus 93, Normal';fill:#ffffff;fill-opacity:1;fill-rule:nonzero;stroke:none;stroke-linecap:butt;stroke-linejoin:miter;-inkscape-stroke:none"
           d="M 279.18287,43.860965 267.04746,70.840116 255.0683,43.860965 h 9.29687 l 2.76042,7.005204 3.02083,-7.005204 z"
           id="path15718" />
        <path
           style="color:#000000;-inkscape-font-specification:'Bauhaus 93, Normal';fill:#ffffff;fill-opacity:1;fill-rule:nonzero;stroke:none;stroke-linecap:butt;stroke-linejoin:miter;-inkscape-stroke:none"
           d="m 255.06836,42.916016 -0.86328,1.328125 11.97851,26.978515 1.72461,0.0059 12.13672,-26.980469 -0.86133,-1.332031 h -9.03711 l -0.86718,0.570312 -2.11524,4.902344 -1.91992,-4.875 -0.87891,-0.597656 z m 1.45312,1.890625 h 7.20118 l 2.52343,6.40625 1.74805,0.02734 2.77344,-6.433593 h 6.95312 l -10.66797,23.71875 z"
           id="path15720" />
      </g>
      <g
         id="path15685"
         style="fill:#ffffff;fill-opacity:1">
        <path
           style="color:#000000;-inkscape-font-specification:'Bauhaus 93, Normal';fill:#ffffff;fill-opacity:1;fill-rule:nonzero;stroke:none;stroke-linecap:butt;stroke-linejoin:miter;-inkscape-stroke:none"
           d="m 305.74536,58.418248 h -14.76562 q -0.33854,-1.119791 -0.33854,-2.05729 0,-1.302083 0.46875,-2.552082 h 4.94792 q -0.52084,-2.890623 -3.25521,-2.890623 -1.82292,0 -2.96875,1.562499 -1.14583,1.536457 -1.14583,3.958331 0,2.52604 1.09375,4.088539 1.11979,1.562499 2.91666,1.562499 1.45833,0 2.8125,-1.458332 l 5.54687,6.666662 q -3.8802,3.046873 -8.61978,3.046873 -5.78125,0 -9.71354,-3.880206 -3.93229,-3.880206 -3.93229,-9.609369 0,-5.703121 3.95833,-9.635411 3.98437,-3.932289 9.76562,-3.932289 5.65104,0 9.47916,3.854164 3.85417,3.828123 3.85417,9.45312 0,0.572916 -0.10417,1.822915 z"
           id="path15724" />
        <path
           style="color:#000000;-inkscape-font-specification:'Bauhaus 93, Normal';fill:#ffffff;fill-opacity:1;fill-rule:nonzero;stroke:none;stroke-linecap:butt;stroke-linejoin:miter;-inkscape-stroke:none"
           d="m 292.51562,42.34375 c -4.06839,0 -7.61082,1.421108 -10.42968,4.203125 l -0.002,0.0039 c -2.80091,2.782489 -4.23632,6.284009 -4.23632,10.304688 0,4.035615 1.42587,7.531146 4.21289,10.28125 2.78631,2.749406 6.3114,4.154297 10.37695,4.154297 3.36219,0 6.46935,-1.103345 9.20312,-3.25 l 0.14454,-1.347657 -5.54688,-6.666015 -1.41992,-0.03906 c -0.7877,0.848285 -1.46188,1.15625 -2.11914,1.15625 -0.92306,0 -1.53997,-0.32085 -2.14649,-1.166015 -0.58905,-0.845083 -0.91992,-1.995488 -0.91992,-3.539063 0,-0.991482 0.20586,-1.763346 0.49805,-2.449219 -0.23752,0.777315 -0.43359,1.564404 -0.43359,2.371094 0,0.738734 0.13207,1.513634 0.3789,2.330078 l 0.9043,0.671875 h 14.76562 l 0.94141,-0.867187 c 0.0704,-0.845238 0.10742,-1.46118 0.10742,-1.900391 0,-3.963864 -1.39792,-7.404612 -4.1289,-10.119141 l -0.002,-0.002 C 299.94839,43.741503 296.49674,42.3437 292.51554,42.3437 Z m 0,1.888672 c 3.55255,0 6.42034,1.171666 8.8086,3.576172 l 0.006,0.0039 c 2.40527,2.389015 3.57422,5.249015 3.57422,8.783203 0,0.163255 -0.0339,0.581748 -0.0508,0.876953 H 291.7716 c -0.0769,-0.383403 -0.18554,-0.79273 -0.18554,-1.111328 0,-0.546222 0.15202,-1.07585 0.29492,-1.607422 h 4.17773 l 0.92969,-1.113281 c -0.1992,-1.105536 -0.63798,-2.050824 -1.37695,-2.707031 -0.73897,-0.656208 -1.73066,-0.960938 -2.8086,-0.960938 -1.4843,0 -2.82334,0.714342 -3.72851,1.947266 -5.7e-4,7.77e-4 -0.001,0.0012 -0.002,0.002 -0.90329,1.214178 -1.32813,2.756673 -1.32813,4.517578 0,1.820399 0.39733,3.393223 1.26367,4.630859 l 0.006,0.0078 c 0.88592,1.23617 2.21376,1.957031 3.68555,1.957031 0.95981,0 1.84061,-0.461214 2.66406,-1.103515 l 4.25,5.105468 c -2.20626,1.503585 -4.55154,2.363282 -7.17578,2.363282 -3.64277,0 -6.59209,-1.183225 -9.04883,-3.607422 -2.45603,-2.423499 -3.65234,-5.334239 -3.65234,-8.9375 0,-3.583475 1.20283,-6.504284 3.67969,-8.964844 2.4932,-2.459667 5.46067,-3.658203 9.0996,-3.658203 z m 0.28711,7.630859 c 0.74498,0 1.20664,0.177043 1.55274,0.484375 0.1095,0.09723 0.15029,0.375722 0.24414,0.515625 h -3.49024 l -0.64843,0.449219 c 0.0521,-0.08083 0.0739,-0.191208 0.13086,-0.267578 l 0.004,-0.0059 c 0.62258,-0.848973 1.26172,-1.175781 2.20703,-1.175781 z"
           id="path15726" />
      </g>
      <g
         id="path15687"
         style="fill:#ffffff;fill-opacity:1">
        <path
           style="color:#000000;-inkscape-font-specification:'Bauhaus 93, Normal';fill:#ffffff;fill-opacity:1;fill-rule:nonzero;stroke:none;stroke-linecap:butt;stroke-linejoin:miter;-inkscape-stroke:none"
           d="m 324.02659,43.600549 v 10.41666 q -1.01562,-0.572916 -1.84896,-0.572916 -2.65624,0 -2.65624,4.062497 v 12.317701 h -9.73958 V 55.631792 q 0,-5.624997 3.07291,-8.958328 3.07292,-3.359373 8.20312,-3.359373 1.14584,0 2.96875,0.286458 z"
           id="path15730" />
        <path
           style="color:#000000;-inkscape-font-specification:'Bauhaus 93, Normal';fill:#ffffff;fill-opacity:1;fill-rule:nonzero;stroke:none;stroke-linecap:butt;stroke-linejoin:miter;-inkscape-stroke:none"
           d="m 321.05859,42.369141 c -3.62637,0 -6.67503,1.233211 -8.90039,3.666015 -2.22688,2.416759 -3.32031,5.674742 -3.32031,9.595703 v 14.19336 l 0.94336,0.945312 h 9.74023 l 0.94532,-0.945312 v -12.31836 c 0,-1.251197 0.22495,-2.093699 0.50976,-2.529297 0.28482,-0.435597 0.55661,-0.58789 1.20117,-0.58789 0.33903,0 0.80401,0.123564 1.38477,0.451172 l 1.4082,-0.822266 V 43.599609 l -0.79687,-0.93164 c -1.24527,-0.195685 -2.2726,-0.298828 -3.11524,-0.298828 z m 0,1.890625 c 0.49121,0 1.2704,0.100853 2.02344,0.195312 v 8.316406 C 322.78081,52.697229 322.47969,52.5 322.17773,52.5 c -1.12626,0 -2.1826,0.524793 -2.7832,1.443359 -0.6006,0.918567 -0.81836,2.105369 -0.81836,3.5625 v 11.373047 h -7.84961 V 55.630859 c 0,-3.577933 0.95319,-6.288932 2.82227,-8.316406 l 0.004,-0.0039 c 1.87187,-2.046355 4.29198,-3.050781 7.50586,-3.050781 z"
           id="path15732" />
      </g>
      <g
         id="path15689"
         style="fill:#ffffff;fill-opacity:1">
        <path
           style="color:#000000;-inkscape-font-specification:'Bauhaus 93, Normal';fill:#ffffff;fill-opacity:1;fill-rule:nonzero;stroke:none;stroke-linecap:butt;stroke-linejoin:miter;-inkscape-stroke:none"
           d="m 335.56305,34.277638 v 9.94791 h 4.375 v 10.286453 h -4.375 q 0,3.098956 0.96354,4.27083 0.98959,1.171875 3.59375,1.171875 v 10.234369 q -0.75521,0.02604 -1.11979,0.02604 -3.30729,0 -6.25,-1.536457 -2.91666,-1.536458 -4.68749,-4.166664 -2.23958,-3.359373 -2.23958,-8.906245 V 34.277638 Z"
           id="path15736" />
        <path
           style="color:#000000;-inkscape-font-specification:'Bauhaus 93, Normal';fill:#ffffff;fill-opacity:1;fill-rule:nonzero;stroke:none;stroke-linecap:butt;stroke-linejoin:miter;-inkscape-stroke:none"
           d="m 325.82422,33.332031 -0.94531,0.945313 v 21.328125 c 0,3.825077 0.77224,6.990396 2.39843,9.429687 l 0.002,0.0039 c 1.26716,1.882118 2.95987,3.383435 5.03125,4.47461 l 0.002,0.002 c 2.09054,1.091521 4.33632,1.644531 6.6875,1.644531 0.26555,0 0.64364,-0.0098 1.15234,-0.02734 l 0.91211,-0.943359 v -10.23442 l -0.94336,-0.945312 c -1.5895,0 -2.46931,-0.364991 -2.86718,-0.832032 -0.30648,-0.375593 -0.54974,-1.376912 -0.6543,-2.720703 h 3.33789 l 0.94531,-0.945312 v -10.28711 l -0.9454,-0.943359 h -3.42969 v -9.003906 l -0.94531,-0.945313 z m 0.94336,1.890625 h 7.85156 v 9.001953 l 0.94336,0.945313 h 3.43164 v 8.396484 h -3.43164 l -0.94336,0.945313 c 0,2.163897 0.27588,3.774237 1.17773,4.871093 l 0.008,0.0098 c 0.74985,0.887973 1.96347,1.245027 3.37109,1.378906 v 8.494141 c -0.0433,4.36e-4 -0.14014,0.0039 -0.17578,0.0039 -2.05854,0 -3.97943,-0.470648 -5.8125,-1.427734 h 0.004 c -1.81617,-0.956734 -3.24817,-2.230393 -4.3418,-3.853516 l -0.002,-0.0039 c -1.35845,-2.039549 -2.08008,-4.81014 -2.08008,-8.378906 z"
           id="path15738" />
      </g>
      <g
         id="path15691"
         style="fill:#ffffff;fill-opacity:1">
        <path
           style="color:#000000;-inkscape-font-specification:'Bauhaus 93, Normal';fill:#ffffff;fill-opacity:1;fill-rule:nonzero;stroke:none;stroke-linecap:butt;stroke-linejoin:miter;-inkscape-stroke:none"
           d="M 408.81822,34.121388 V 44.25159 q -1.14583,-0.390625 -1.77083,-0.390625 -1.19792,0 -2.05729,0.885416 -0.85938,0.885416 -0.85938,2.135416 0,1.067707 0.9375,2.708331 l 0.80729,1.40625 q 2.1875,3.802081 2.1875,7.343745 0,5.182289 -3.69791,8.776037 -3.67188,3.593748 -8.98437,3.593748 -2.55208,0 -5.05208,-1.171875 V 59.251581 q 1.51041,0.963541 2.68229,0.963541 1.38021,0 2.29166,-0.781249 0.9375,-0.807292 0.9375,-2.005208 0,-0.781249 -1.48437,-3.411456 -2.36979,-4.166664 -2.36979,-8.333328 0,-5.026039 3.5677,-8.645828 3.59375,-3.645832 8.56771,-3.645832 2.1875,0 4.29687,0.729167 z"
           id="path15742" />
        <path
           style="color:#000000;-inkscape-font-specification:'Bauhaus 93, Normal';fill:#ffffff;fill-opacity:1;fill-rule:nonzero;stroke:none;stroke-linecap:butt;stroke-linejoin:miter;-inkscape-stroke:none"
           d="m 404.52148,32.447266 c -3.54683,0 -6.69141,1.341971 -9.24023,3.927734 -2.53194,2.568906 -3.83984,5.734332 -3.83984,9.308594 0,2.956906 0.84541,5.905355 2.49218,8.800781 0.4844,0.858425 0.84219,1.55833 1.06836,2.078125 0.22634,0.520182 0.29297,0.904029 0.29297,0.865234 0,0.551114 -0.15941,0.902503 -0.60742,1.289063 -4.5e-4,3.86e-4 -0.002,-3.86e-4 -0.002,0 -0.42842,0.366695 -0.93275,0.552734 -1.67383,0.552734 -0.52229,0 -1.26225,-0.231683 -2.17578,-0.814453 l -1.45313,0.796875 v 10.285156 l 0.54492,0.857422 c 1.77855,0.833694 3.60712,1.259766 5.45313,1.259766 3.75375,0 7.03219,-1.307464 9.64258,-3.861328 l 0.002,-0.002 c 2.62673,-2.553718 3.98242,-5.772519 3.98242,-9.451172 0,-2.555641 -0.79092,-5.169812 -2.3125,-7.814453 l -0.80664,-1.404297 -0.002,-0.002 c -0.57985,-1.015536 -0.81055,-1.803485 -0.81055,-2.238282 0,-0.616796 0.17365,-1.04575 0.5918,-1.476562 0.42009,-0.432824 0.81309,-0.597656 1.3789,-0.597656 0.21982,0 0.75258,0.09636 1.4668,0.339843 l 1.25,-0.894531 V 34.121094 l -0.63672,-0.892578 c -1.50156,-0.519062 -3.04215,-0.78125 -4.60547,-0.78125 z m 0,1.890625 c 1.13732,0 2.24607,0.248873 3.35157,0.568359 v 8.185547 c -0.26345,-0.04872 -0.58203,-0.175781 -0.82618,-0.175781 -1.0314,0 -2.00864,0.424145 -2.73437,1.171875 -0.72769,0.749741 -1.12695,1.7431 -1.12695,2.792968 0,0.988355 0.39369,2.007324 1.0625,3.177735 v 0.002 l 0.80859,1.40625 c 1.39509,2.424794 2.06055,4.706474 2.06055,6.873047 0,3.230111 -1.10768,5.861982 -3.41016,8.099609 l -0.002,0.002 c -2.28513,2.236499 -4.99563,3.324219 -8.32422,3.324219 -1.37501,0 -2.73692,-0.327913 -4.10742,-0.894531 v -8.087891 c 0.58568,0.229048 1.16528,0.376953 1.73828,0.376953 1.09842,0 2.11969,-0.335563 2.90625,-1.009765 h 0.002 c 0.80011,-0.688987 1.26563,-1.677556 1.26563,-2.722657 0,-0.559627 -0.18077,-1.002171 -0.44922,-1.61914 -0.26845,-0.616969 -0.65358,-1.361688 -1.15821,-2.25586 l -0.002,-0.002 c -1.51294,-2.66012 -2.24609,-5.268547 -2.24609,-7.867187 0,-3.127118 1.07188,-5.724947 3.29687,-7.982422 2.24284,-2.275342 4.80942,-3.363281 7.89453,-3.363281 z"
           id="path15744" />
      </g>
      <g
         id="path15693"
         style="fill:#ffffff;fill-opacity:1">
        <path
           style="color:#000000;-inkscape-font-specification:'Bauhaus 93, Normal';fill:#ffffff;fill-opacity:1;fill-rule:nonzero;stroke:none;stroke-linecap:butt;stroke-linejoin:miter;-inkscape-stroke:none"
           d="m 453.063,44.225548 v 10.260411 q -2.05729,0 -2.83854,0.781249 -0.75521,0.755208 -0.96354,3.020832 -0.67709,7.526037 -5.83333,10.624994 -2.73438,1.614582 -7.76042,1.614582 h -1.35416 V 60.215122 h 0.44271 q 2.34375,0 3.33333,-0.963541 1.01562,-0.989583 1.17187,-3.437498 0.20834,-3.984373 0.72917,-5.598955 0.54687,-1.614582 2.1875,-3.203123 2.86458,-2.786457 7.9427,-2.786457 z"
           id="path15748" />
        <path
           style="color:#000000;-inkscape-font-specification:'Bauhaus 93, Normal';fill:#ffffff;fill-opacity:1;fill-rule:nonzero;stroke:none;stroke-linecap:butt;stroke-linejoin:miter;-inkscape-stroke:none"
           d="m 450.12109,43.28125 c -3.55823,0 -6.49181,1.000518 -8.60156,3.052734 -1.17099,1.133814 -1.99735,2.318989 -2.42383,3.578125 l -0.004,0.01367 c -0.40564,1.257478 -0.6347,3.149242 -0.77539,5.839844 -0.0979,1.501438 -0.47254,2.405034 -0.88672,2.808594 -0.39259,0.382255 -1.24082,0.695312 -2.67383,0.695312 h -0.44336 l -0.94531,0.945313 v 10.3125 l 0.94531,0.945312 h 1.35547 c 3.45187,0 6.19906,-0.540831 8.24023,-1.746094 l 0.006,-0.0039 c 3.71083,-2.230247 5.81721,-6.129653 6.28711,-11.347656 v -0.002 c 0.13048,-1.414349 0.49143,-2.237524 0.69141,-2.4375 0.2276,-0.227598 0.918,-0.503906 2.16992,-0.503906 l 0.94531,-0.945313 V 44.224609 L 453.0625,43.28125 Z m 0,1.888672 h 1.9961 v 8.476562 c -1.03129,0.101711 -1.9383,0.330875 -2.56055,0.953125 -0.80682,0.806819 -1.08878,1.997012 -1.23633,3.601563 v 0.002 c -0.43297,4.812553 -2.21323,7.994651 -5.37304,9.896484 -4.6e-4,2.71e-4 -0.002,-2.7e-4 -0.002,0 -1.60467,0.947006 -4.02876,1.482422 -7.27734,1.482422 h -0.41016 v -8.482422 c 1.44235,-0.067 2.66526,-0.368601 3.49024,-1.171875 0.93865,-0.914585 1.34313,-2.29899 1.45507,-4.052734 l 0.002,-0.01172 c 0.1369,-2.618127 0.39529,-4.452888 0.68359,-5.349609 0.30324,-0.8924 0.93041,-1.839584 1.94531,-2.822266 l 0.002,-0.002 c 1.70968,-1.663056 4.07257,-2.519531 7.28515,-2.519531 z"
           id="path15750" />
      </g>
      <g
         id="path15695"
         style="fill:#ffffff;fill-opacity:1">
        <path
           style="color:#000000;-inkscape-font-specification:'Bauhaus 93, Normal';fill:#ffffff;fill-opacity:1;fill-rule:nonzero;stroke:none;stroke-linecap:butt;stroke-linejoin:miter;-inkscape-stroke:none"
           d="m 470.66717,60.084914 v 10.078119 q -1.19792,0.208333 -2.1875,0.208333 -5.85938,0 -9.76562,-3.854164 -3.90625,-3.854165 -3.90625,-9.661453 0,-5.651038 3.93229,-9.583328 3.95833,-3.932289 9.60937,-3.932289 6.30208,0 9.92187,3.697915 3.64583,3.671872 3.64583,10.052077 v 12.734367 h -9.73958 V 57.793249 q 0,-2.057291 -1.01562,-3.281248 -0.98959,-1.223958 -2.68229,-1.223958 -1.53646,0 -2.65625,1.119791 -1.11979,1.119791 -1.11979,2.656248 0,1.614583 1.01562,2.656249 1.01563,1.041666 2.57812,1.041666 1.27605,0 2.3698,-0.677083 z"
           id="path15754" />
        <path
           style="color:#000000;-inkscape-font-specification:'Bauhaus 93, Normal';fill:#ffffff;fill-opacity:1;fill-rule:nonzero;stroke:none;stroke-linecap:butt;stroke-linejoin:miter;-inkscape-stroke:none"
           d="m 468.34961,42.394531 c -3.98652,0 -7.47701,1.427063 -10.27539,4.207031 l -0.002,0.002 c -2.78156,2.78155 -4.20899,6.265432 -4.20899,10.251953 0,4.083378 1.41445,7.597903 4.1875,10.333984 2.77229,2.735334 6.31627,4.126953 10.42969,4.126953 0.72603,0 1.50577,-0.07624 2.34765,-0.222656 l 0.76368,-0.910156 0.58593,0.585937 h 9.74024 l 0.94336,-0.945312 V 57.089844 c 0,-4.433443 -1.29658,-8.074713 -3.91992,-10.716797 -2.60456,-2.657767 -6.20839,-3.978516 -10.5918,-3.978516 z m 0,1.890625 c 4.01657,0 7.02465,1.144672 9.24609,3.414063 l 0.006,0.0039 c 2.23776,2.25374 3.3711,5.31323 3.3711,9.386719 V 68.8789 h -7.84961 V 57.792969 c 0,-1.524317 -0.39035,-2.863376 -1.23047,-3.878907 -0.82532,-1.017994 -2.05785,-1.570312 -3.41211,-1.570312 -1.25385,0 -2.4249,0.497168 -3.32422,1.396484 -0.89932,0.899316 -1.39844,2.070369 -1.39844,3.324219 0,1.274507 0.43773,2.447247 1.28516,3.316406 0.84616,0.867856 2.00227,1.326172 3.2539,1.326172 0.50608,0 0.94733,-0.270365 1.42579,-0.40625 v 8.00586 c -0.4256,0.04863 -0.87823,0.11914 -1.24219,0.11914 -3.69908,0 -6.66749,-1.178485 -9.10352,-3.582031 -2.43527,-2.402801 -3.625,-5.328616 -3.625,-8.988281 0,-3.54819 1.19476,-6.452565 3.65625,-8.914063 2.47895,-2.461699 5.3942,-3.65625 8.94141,-3.65625 z m 0.13086,9.947266 c 0.90072,0 1.45314,0.261901 1.94726,0.873047 l 0.008,0.0098 c 0.51095,0.615763 0.79687,1.461695 0.79687,2.677735 v 2.080078 l -1.0625,-0.591797 c -0.58934,0.364829 -1.18947,0.535156 -1.87305,0.535156 -0.83168,0 -1.39238,-0.234828 -1.90039,-0.755859 -0.50673,-0.519728 -0.74804,-1.117825 -0.74804,-1.996094 0,-0.794757 0.25001,-1.394544 0.84375,-1.988281 0.59373,-0.593737 1.19352,-0.84375 1.98828,-0.84375 z"
           id="path15756" />
      </g>
    </g>
    <path
       style="color:#000000;fill:#ffffff;fill-opacity:1;fill-rule:evenodd;-inkscape-stroke:none"
       d="m 72.884766,33.009766 c -0.877925,0.03061 -1.742061,0.391764 -2.367188,1.09375 -1.118671,1.256211 -1.07842,3.262521 0.210938,4.394531 1.140013,1.000891 2.953251,0.95831 3.966796,-0.216797 0.883031,-1.023787 0.840673,-2.642348 -0.220703,-3.537109 -0.907524,-0.765062 -2.333889,-0.719906 -3.109375,0.228515 -0.646944,0.791215 -0.600378,2.026239 0.236328,2.681641 0.674857,0.528623 1.718109,0.479093 2.251954,-0.248047 0.410024,-0.558487 0.358093,-1.417014 -0.263672,-1.826172 -0.221223,-0.145577 -0.490017,-0.202623 -0.748047,-0.162109 -0.25803,0.04051 -0.512455,0.192029 -0.650391,0.455078 -0.08666,0.165272 -0.109317,0.355563 -0.0625,0.541015 0.04682,0.185453 0.195304,0.377574 0.423828,0.429688 0.161228,0.03677 0.260419,-0.0034 0.375,-0.08398 0.05729,-0.04029 0.124947,-0.102997 0.148438,-0.210938 0.02349,-0.107941 -0.02776,-0.230101 -0.0957,-0.298828 l -0.324219,0.318359 c -0.0039,-0.0039 -0.03674,-0.0631 -0.02539,-0.115234 0.01135,-0.05213 0.03672,-0.06614 0.03711,-0.06641 7.72e-4,-5.43e-4 -0.07093,6.14e-4 -0.01367,0.01367 -0.05322,-0.01214 -0.06733,-0.03169 -0.08398,-0.09766 -0.01665,-0.06597 -0.0043,-0.165802 0.02344,-0.21875 0.06675,-0.127294 0.176738,-0.19456 0.318359,-0.216797 0.141622,-0.02224 0.306967,0.01428 0.427735,0.09375 0.382006,0.251383 0.416224,0.811034 0.148437,1.175782 -0.369571,0.503386 -1.122737,0.537862 -1.607422,0.158203 -0.622458,-0.487579 -0.657298,-1.431927 -0.164062,-2.035156 0.605425,-0.740438 1.743812,-0.775813 2.464844,-0.167969 0.857821,0.72316 0.893041,2.054191 0.169921,2.892578 -0.840818,0.974846 -2.366816,1.010725 -3.322265,0.171875 -1.091641,-0.958421 -1.126779,-2.677691 -0.171875,-3.75 1.075985,-1.208277 2.990665,-1.24307 4.179687,-0.171875 1.324802,1.193519 1.357589,3.301795 0.169922,4.607422 -0.05825,0.06403 -0.118673,0.126113 -0.18164,0.185547 l 0.3125,0.330078 c 0.07134,-0.06734 0.139047,-0.136396 0.205078,-0.208985 1.354058,-1.488545 1.317677,-3.883616 -0.201172,-5.251953 -0.686194,-0.618194 -1.579106,-0.917327 -2.457031,-0.886718 z"
       id="path14812-8"
       transform="matrix(0.89910484,0,0,0.9201638,48.662013,3.4481222)" />
    <path
       style="color:#000000;fill:#ffffff;fill-opacity:1;fill-rule:evenodd;-inkscape-stroke:none"
       d="m 72.884766,33.009766 c -0.877925,0.03061 -1.742061,0.391764 -2.367188,1.09375 -1.118671,1.256211 -1.07842,3.262521 0.210938,4.394531 1.140013,1.000891 2.953251,0.95831 3.966796,-0.216797 0.883031,-1.023787 0.840673,-2.642348 -0.220703,-3.537109 -0.907524,-0.765062 -2.333889,-0.719906 -3.109375,0.228515 -0.646944,0.791215 -0.600378,2.026239 0.236328,2.681641 0.674857,0.528623 1.718109,0.479093 2.251954,-0.248047 0.410024,-0.558487 0.358093,-1.417014 -0.263672,-1.826172 -0.221223,-0.145577 -0.490017,-0.202623 -0.748047,-0.162109 -0.25803,0.04051 -0.512455,0.192029 -0.650391,0.455078 -0.08666,0.165272 -0.109317,0.355563 -0.0625,0.541015 0.04682,0.185453 0.195304,0.377574 0.423828,0.429688 0.161228,0.03677 0.260419,-0.0034 0.375,-0.08398 0.05729,-0.04029 0.124947,-0.102997 0.148438,-0.210938 0.02349,-0.107941 -0.02776,-0.230101 -0.0957,-0.298828 l -0.324219,0.318359 c -0.0039,-0.0039 -0.03674,-0.0631 -0.02539,-0.115234 0.01135,-0.05213 0.03672,-0.06614 0.03711,-0.06641 7.72e-4,-5.43e-4 -0.07093,6.14e-4 -0.01367,0.01367 -0.05322,-0.01214 -0.06733,-0.03169 -0.08398,-0.09766 -0.01665,-0.06597 -0.0043,-0.165802 0.02344,-0.21875 0.06675,-0.127294 0.176738,-0.19456 0.318359,-0.216797 0.141622,-0.02224 0.306967,0.01428 0.427735,0.09375 0.382006,0.251383 0.416224,0.811034 0.148437,1.175782 -0.369571,0.503386 -1.122737,0.537862 -1.607422,0.158203 -0.622458,-0.487579 -0.657298,-1.431927 -0.164062,-2.035156 0.605425,-0.740438 1.743812,-0.775813 2.464844,-0.167969 0.857821,0.72316 0.893041,2.054191 0.169921,2.892578 -0.840818,0.974846 -2.366816,1.010725 -3.322265,0.171875 -1.091641,-0.958421 -1.126779,-2.677691 -0.171875,-3.75 1.075985,-1.208277 2.990665,-1.24307 4.179687,-0.171875 1.324802,1.193519 1.357589,3.301795 0.169922,4.607422 -0.05825,0.06403 -0.118673,0.126113 -0.18164,0.185547 l 0.3125,0.330078 c 0.07134,-0.06734 0.139047,-0.136396 0.205078,-0.208985 1.354058,-1.488545 1.317677,-3.883616 -0.201172,-5.251953 -0.686194,-0.618194 -1.579106,-0.917327 -2.457031,-0.886718 z"
       id="path14812-8-5"
       transform="matrix(0.89910484,0,0,0.9201638,32.294157,3.3628729)" />
    <path
       style="color:#000000;fill:#ffffff;fill-opacity:1;fill-rule:evenodd;-inkscape-stroke:none"
       d="m 72.884766,33.009766 c -0.877925,0.03061 -1.742061,0.391764 -2.367188,1.09375 -1.118671,1.256211 -1.07842,3.262521 0.210938,4.394531 1.140013,1.000891 2.953251,0.95831 3.966796,-0.216797 0.883031,-1.023787 0.840673,-2.642348 -0.220703,-3.537109 -0.907524,-0.765062 -2.333889,-0.719906 -3.109375,0.228515 -0.646944,0.791215 -0.600378,2.026239 0.236328,2.681641 0.674857,0.528623 1.718109,0.479093 2.251954,-0.248047 0.410024,-0.558487 0.358093,-1.417014 -0.263672,-1.826172 -0.221223,-0.145577 -0.490017,-0.202623 -0.748047,-0.162109 -0.25803,0.04051 -0.512455,0.192029 -0.650391,0.455078 -0.08666,0.165272 -0.109317,0.355563 -0.0625,0.541015 0.04682,0.185453 0.195304,0.377574 0.423828,0.429688 0.161228,0.03677 0.260419,-0.0034 0.375,-0.08398 0.05729,-0.04029 0.124947,-0.102997 0.148438,-0.210938 0.02349,-0.107941 -0.02776,-0.230101 -0.0957,-0.298828 l -0.324219,0.318359 c -0.0039,-0.0039 -0.03674,-0.0631 -0.02539,-0.115234 0.01135,-0.05213 0.03672,-0.06614 0.03711,-0.06641 7.72e-4,-5.43e-4 -0.07093,6.14e-4 -0.01367,0.01367 -0.05322,-0.01214 -0.06733,-0.03169 -0.08398,-0.09766 -0.01665,-0.06597 -0.0043,-0.165802 0.02344,-0.21875 0.06675,-0.127294 0.176738,-0.19456 0.318359,-0.216797 0.141622,-0.02224 0.306967,0.01428 0.427735,0.09375 0.382006,0.251383 0.416224,0.811034 0.148437,1.175782 -0.369571,0.503386 -1.122737,0.537862 -1.607422,0.158203 -0.622458,-0.487579 -0.657298,-1.431927 -0.164062,-2.035156 0.605425,-0.740438 1.743812,-0.775813 2.464844,-0.167969 0.857821,0.72316 0.893041,2.054191 0.169921,2.892578 -0.840818,0.974846 -2.366816,1.010725 -3.322265,0.171875 -1.091641,-0.958421 -1.126779,-2.677691 -0.171875,-3.75 1.075985,-1.208277 2.990665,-1.24307 4.179687,-0.171875 1.324802,1.193519 1.357589,3.301795 0.169922,4.607422 -0.05825,0.06403 -0.118673,0.126113 -0.18164,0.185547 l 0.3125,0.330078 c 0.07134,-0.06734 0.139047,-0.136396 0.205078,-0.208985 1.354058,-1.488545 1.317677,-3.883616 -0.201172,-5.251953 -0.686194,-0.618194 -1.579106,-0.917327 -2.457031,-0.886718 z"
       id="path14812-8-4"
       transform="matrix(0.89910484,0,0,0.9201638,6.207887,3.1923738)" />
  </g>
</svg>
